%TF.GenerationSoftware,KiCad,Pcbnew,9.0.5*%
%TF.CreationDate,2025-11-22T01:39:54+01:00*%
%TF.ProjectId,AstableMonostable_NE555,41737461-626c-4654-9d6f-6e6f73746162,rev?*%
%TF.SameCoordinates,PX57a4860PY69925e0*%
%TF.FileFunction,Soldermask,Top*%
%TF.FilePolarity,Negative*%
%FSLAX46Y46*%
G04 Gerber Fmt 4.6, Leading zero omitted, Abs format (unit mm)*
G04 Created by KiCad (PCBNEW 9.0.5) date 2025-11-22 01:39:54*
%MOMM*%
%LPD*%
G01*
G04 APERTURE LIST*
G04 Aperture macros list*
%AMRoundRect*
0 Rectangle with rounded corners*
0 $1 Rounding radius*
0 $2 $3 $4 $5 $6 $7 $8 $9 X,Y pos of 4 corners*
0 Add a 4 corners polygon primitive as box body*
4,1,4,$2,$3,$4,$5,$6,$7,$8,$9,$2,$3,0*
0 Add four circle primitives for the rounded corners*
1,1,$1+$1,$2,$3*
1,1,$1+$1,$4,$5*
1,1,$1+$1,$6,$7*
1,1,$1+$1,$8,$9*
0 Add four rect primitives between the rounded corners*
20,1,$1+$1,$2,$3,$4,$5,0*
20,1,$1+$1,$4,$5,$6,$7,0*
20,1,$1+$1,$6,$7,$8,$9,0*
20,1,$1+$1,$8,$9,$2,$3,0*%
G04 Aperture macros list end*
%ADD10RoundRect,0.250000X-0.400000X-0.625000X0.400000X-0.625000X0.400000X0.625000X-0.400000X0.625000X0*%
%ADD11R,1.700000X1.700000*%
%ADD12O,1.700000X1.700000*%
%ADD13RoundRect,0.250000X-1.050000X-0.550000X1.050000X-0.550000X1.050000X0.550000X-1.050000X0.550000X0*%
%ADD14RoundRect,0.250000X-0.550000X-0.550000X0.550000X-0.550000X0.550000X0.550000X-0.550000X0.550000X0*%
%ADD15C,1.600000*%
%ADD16RoundRect,0.250000X0.412500X0.650000X-0.412500X0.650000X-0.412500X-0.650000X0.412500X-0.650000X0*%
%ADD17RoundRect,0.250000X-0.412500X-0.650000X0.412500X-0.650000X0.412500X0.650000X-0.412500X0.650000X0*%
%ADD18RoundRect,0.250001X-0.462499X-0.624999X0.462499X-0.624999X0.462499X0.624999X-0.462499X0.624999X0*%
%ADD19RoundRect,0.250000X0.550000X-1.250000X0.550000X1.250000X-0.550000X1.250000X-0.550000X-1.250000X0*%
%ADD20RoundRect,0.250000X0.550000X-1.500000X0.550000X1.500000X-0.550000X1.500000X-0.550000X-1.500000X0*%
%ADD21RoundRect,0.250000X0.625000X-0.400000X0.625000X0.400000X-0.625000X0.400000X-0.625000X-0.400000X0*%
G04 APERTURE END LIST*
D10*
%TO.C,R5*%
X23850000Y12700000D03*
X26950000Y12700000D03*
%TD*%
D11*
%TO.C,J2*%
X6600000Y11125000D03*
D12*
X6600000Y13665000D03*
%TD*%
D13*
%TO.C,C6*%
X25600000Y16600000D03*
X29200000Y16600000D03*
%TD*%
D14*
%TO.C,U2*%
X12980000Y18440000D03*
D15*
X12980000Y15900000D03*
X12980000Y13360000D03*
X12980000Y10820000D03*
X20600000Y10820000D03*
X20600000Y13360000D03*
X20600000Y15900000D03*
X20600000Y18440000D03*
%TD*%
D14*
%TO.C,U1*%
X13090000Y33910000D03*
D15*
X13090000Y31370000D03*
X13090000Y28830000D03*
X13090000Y26290000D03*
X20710000Y26290000D03*
X20710000Y28830000D03*
X20710000Y31370000D03*
X20710000Y33910000D03*
%TD*%
D16*
%TO.C,C5*%
X20762500Y23000000D03*
X17637500Y23000000D03*
%TD*%
D17*
%TO.C,C7*%
X23837500Y10300000D03*
X26962500Y10300000D03*
%TD*%
D18*
%TO.C,D1*%
X23612500Y22900000D03*
X26587500Y22900000D03*
%TD*%
D10*
%TO.C,R4*%
X17850000Y7600000D03*
X20950000Y7600000D03*
%TD*%
D11*
%TO.C,J1*%
X2525000Y24550000D03*
D12*
X2525000Y22010000D03*
%TD*%
D10*
%TO.C,R3*%
X23500000Y25800000D03*
X26600000Y25800000D03*
%TD*%
D19*
%TO.C,C1*%
X7900000Y21200000D03*
X7900000Y25600000D03*
%TD*%
D18*
%TO.C,D2*%
X17912500Y4600000D03*
X20887500Y4600000D03*
%TD*%
D17*
%TO.C,C2*%
X12437500Y23000000D03*
X15562500Y23000000D03*
%TD*%
D20*
%TO.C,C4*%
X30000000Y29700000D03*
X30000000Y35100000D03*
%TD*%
D21*
%TO.C,R2*%
X23800000Y28550000D03*
X23800000Y31650000D03*
%TD*%
D10*
%TO.C,R1*%
X19850000Y36800000D03*
X22950000Y36800000D03*
%TD*%
D17*
%TO.C,C3*%
X12337500Y7600000D03*
X15462500Y7600000D03*
%TD*%
M02*
