%TF.GenerationSoftware,KiCad,Pcbnew,9.0.5*%
%TF.CreationDate,2025-11-22T01:39:54+01:00*%
%TF.ProjectId,AstableMonostable_NE555,41737461-626c-4654-9d6f-6e6f73746162,rev?*%
%TF.SameCoordinates,PX57a4860PY69925e0*%
%TF.FileFunction,Copper,L1,Top*%
%TF.FilePolarity,Positive*%
%FSLAX46Y46*%
G04 Gerber Fmt 4.6, Leading zero omitted, Abs format (unit mm)*
G04 Created by KiCad (PCBNEW 9.0.5) date 2025-11-22 01:39:54*
%MOMM*%
%LPD*%
G01*
G04 APERTURE LIST*
G04 Aperture macros list*
%AMRoundRect*
0 Rectangle with rounded corners*
0 $1 Rounding radius*
0 $2 $3 $4 $5 $6 $7 $8 $9 X,Y pos of 4 corners*
0 Add a 4 corners polygon primitive as box body*
4,1,4,$2,$3,$4,$5,$6,$7,$8,$9,$2,$3,0*
0 Add four circle primitives for the rounded corners*
1,1,$1+$1,$2,$3*
1,1,$1+$1,$4,$5*
1,1,$1+$1,$6,$7*
1,1,$1+$1,$8,$9*
0 Add four rect primitives between the rounded corners*
20,1,$1+$1,$2,$3,$4,$5,0*
20,1,$1+$1,$4,$5,$6,$7,0*
20,1,$1+$1,$6,$7,$8,$9,0*
20,1,$1+$1,$8,$9,$2,$3,0*%
G04 Aperture macros list end*
%TA.AperFunction,SMDPad,CuDef*%
%ADD10RoundRect,0.250000X-0.400000X-0.625000X0.400000X-0.625000X0.400000X0.625000X-0.400000X0.625000X0*%
%TD*%
%TA.AperFunction,ComponentPad*%
%ADD11R,1.700000X1.700000*%
%TD*%
%TA.AperFunction,ComponentPad*%
%ADD12O,1.700000X1.700000*%
%TD*%
%TA.AperFunction,SMDPad,CuDef*%
%ADD13RoundRect,0.250000X-1.050000X-0.550000X1.050000X-0.550000X1.050000X0.550000X-1.050000X0.550000X0*%
%TD*%
%TA.AperFunction,ComponentPad*%
%ADD14RoundRect,0.250000X-0.550000X-0.550000X0.550000X-0.550000X0.550000X0.550000X-0.550000X0.550000X0*%
%TD*%
%TA.AperFunction,ComponentPad*%
%ADD15C,1.600000*%
%TD*%
%TA.AperFunction,SMDPad,CuDef*%
%ADD16RoundRect,0.250000X0.412500X0.650000X-0.412500X0.650000X-0.412500X-0.650000X0.412500X-0.650000X0*%
%TD*%
%TA.AperFunction,SMDPad,CuDef*%
%ADD17RoundRect,0.250000X-0.412500X-0.650000X0.412500X-0.650000X0.412500X0.650000X-0.412500X0.650000X0*%
%TD*%
%TA.AperFunction,SMDPad,CuDef*%
%ADD18RoundRect,0.250001X-0.462499X-0.624999X0.462499X-0.624999X0.462499X0.624999X-0.462499X0.624999X0*%
%TD*%
%TA.AperFunction,SMDPad,CuDef*%
%ADD19RoundRect,0.250000X0.550000X-1.250000X0.550000X1.250000X-0.550000X1.250000X-0.550000X-1.250000X0*%
%TD*%
%TA.AperFunction,SMDPad,CuDef*%
%ADD20RoundRect,0.250000X0.550000X-1.500000X0.550000X1.500000X-0.550000X1.500000X-0.550000X-1.500000X0*%
%TD*%
%TA.AperFunction,SMDPad,CuDef*%
%ADD21RoundRect,0.250000X0.625000X-0.400000X0.625000X0.400000X-0.625000X0.400000X-0.625000X-0.400000X0*%
%TD*%
%TA.AperFunction,ViaPad*%
%ADD22C,0.600000*%
%TD*%
%TA.AperFunction,Conductor*%
%ADD23C,1.200000*%
%TD*%
%TA.AperFunction,Conductor*%
%ADD24C,0.400000*%
%TD*%
%TA.AperFunction,Conductor*%
%ADD25C,1.000000*%
%TD*%
%TA.AperFunction,Conductor*%
%ADD26C,0.600000*%
%TD*%
%TA.AperFunction,Conductor*%
%ADD27C,0.700000*%
%TD*%
G04 APERTURE END LIST*
D10*
%TO.P,R5,1*%
%TO.N,Net-(U2-DIS)*%
X23850000Y12700000D03*
%TO.P,R5,2*%
%TO.N,+5V*%
X26950000Y12700000D03*
%TD*%
D11*
%TO.P,J2,1,Pin_1*%
%TO.N,+5V*%
X6600000Y11125000D03*
D12*
%TO.P,J2,2,Pin_2*%
%TO.N,Net-(J2-Pin_2)*%
X6600000Y13665000D03*
%TD*%
D13*
%TO.P,C6,1*%
%TO.N,Net-(U2-DIS)*%
X25600000Y16600000D03*
%TO.P,C6,2*%
%TO.N,GND*%
X29200000Y16600000D03*
%TD*%
D14*
%TO.P,U2,1,GND*%
%TO.N,GND*%
X12980000Y18440000D03*
D15*
%TO.P,U2,2,TR*%
%TO.N,Net-(J2-Pin_2)*%
X12980000Y15900000D03*
%TO.P,U2,3,Q*%
%TO.N,Net-(U2-Q)*%
X12980000Y13360000D03*
%TO.P,U2,4,R*%
%TO.N,+5V*%
X12980000Y10820000D03*
%TO.P,U2,5,CV*%
%TO.N,Net-(U2-CV)*%
X20600000Y10820000D03*
%TO.P,U2,6,THR*%
%TO.N,Net-(U2-DIS)*%
X20600000Y13360000D03*
%TO.P,U2,7,DIS*%
X20600000Y15900000D03*
%TO.P,U2,8,VCC*%
%TO.N,+5V*%
X20600000Y18440000D03*
%TD*%
D14*
%TO.P,U1,1,GND*%
%TO.N,GND*%
X13090000Y33910000D03*
D15*
%TO.P,U1,2,TR*%
%TO.N,Net-(U1-THR)*%
X13090000Y31370000D03*
%TO.P,U1,3,Q*%
%TO.N,Net-(U1-Q)*%
X13090000Y28830000D03*
%TO.P,U1,4,R*%
%TO.N,+5V*%
X13090000Y26290000D03*
%TO.P,U1,5,CV*%
%TO.N,Net-(U1-CV)*%
X20710000Y26290000D03*
%TO.P,U1,6,THR*%
%TO.N,Net-(U1-THR)*%
X20710000Y28830000D03*
%TO.P,U1,7,DIS*%
%TO.N,Net-(U1-DIS)*%
X20710000Y31370000D03*
%TO.P,U1,8,VCC*%
%TO.N,+5V*%
X20710000Y33910000D03*
%TD*%
D16*
%TO.P,C5,1*%
%TO.N,Net-(U1-CV)*%
X20762500Y23000000D03*
%TO.P,C5,2*%
%TO.N,GND*%
X17637500Y23000000D03*
%TD*%
D17*
%TO.P,C7,1*%
%TO.N,Net-(U2-CV)*%
X23837500Y10300000D03*
%TO.P,C7,2*%
%TO.N,GND*%
X26962500Y10300000D03*
%TD*%
D18*
%TO.P,D1,1,K*%
%TO.N,GND*%
X23612500Y22900000D03*
%TO.P,D1,2,A*%
%TO.N,Net-(D1-A)*%
X26587500Y22900000D03*
%TD*%
D10*
%TO.P,R4,1*%
%TO.N,Net-(U2-Q)*%
X17850000Y7600000D03*
%TO.P,R4,2*%
%TO.N,Net-(D2-A)*%
X20950000Y7600000D03*
%TD*%
D11*
%TO.P,J1,1,Pin_1*%
%TO.N,GND*%
X2525000Y24550000D03*
D12*
%TO.P,J1,2,Pin_2*%
%TO.N,+5V*%
X2525000Y22010000D03*
%TD*%
D10*
%TO.P,R3,1*%
%TO.N,Net-(U1-Q)*%
X23500000Y25800000D03*
%TO.P,R3,2*%
%TO.N,Net-(D1-A)*%
X26600000Y25800000D03*
%TD*%
D19*
%TO.P,C1,1*%
%TO.N,+5V*%
X7900000Y21200000D03*
%TO.P,C1,2*%
%TO.N,GND*%
X7900000Y25600000D03*
%TD*%
D18*
%TO.P,D2,1,K*%
%TO.N,GND*%
X17912500Y4600000D03*
%TO.P,D2,2,A*%
%TO.N,Net-(D2-A)*%
X20887500Y4600000D03*
%TD*%
D17*
%TO.P,C2,1*%
%TO.N,+5V*%
X12437500Y23000000D03*
%TO.P,C2,2*%
%TO.N,GND*%
X15562500Y23000000D03*
%TD*%
D20*
%TO.P,C4,1*%
%TO.N,Net-(U1-THR)*%
X30000000Y29700000D03*
%TO.P,C4,2*%
%TO.N,GND*%
X30000000Y35100000D03*
%TD*%
D21*
%TO.P,R2,1*%
%TO.N,Net-(U1-THR)*%
X23800000Y28550000D03*
%TO.P,R2,2*%
%TO.N,Net-(U1-DIS)*%
X23800000Y31650000D03*
%TD*%
D10*
%TO.P,R1,1*%
%TO.N,Net-(U1-DIS)*%
X19850000Y36800000D03*
%TO.P,R1,2*%
%TO.N,+5V*%
X22950000Y36800000D03*
%TD*%
D17*
%TO.P,C3,1*%
%TO.N,+5V*%
X12337500Y7600000D03*
%TO.P,C3,2*%
%TO.N,GND*%
X15462500Y7600000D03*
%TD*%
D22*
%TO.N,GND*%
X15500000Y4800000D03*
X27100000Y8400000D03*
X7900000Y28100000D03*
X30000000Y37800000D03*
X32550000Y16550000D03*
X16600000Y21000000D03*
%TD*%
D23*
%TO.N,Net-(D2-A)*%
X20887500Y7537500D02*
X20950000Y7600000D01*
X20887500Y4600000D02*
X20887500Y7537500D01*
D24*
%TO.N,Net-(U1-DIS)*%
X18600000Y33480000D02*
X20710000Y31370000D01*
X19400000Y36800000D02*
X18600000Y36000000D01*
X18600000Y36000000D02*
X18600000Y33480000D01*
X19850000Y36800000D02*
X19400000Y36800000D01*
D23*
%TO.N,+5V*%
X22950000Y34850000D02*
X22950000Y36800000D01*
X23000000Y34800000D02*
X22950000Y34850000D01*
X22110000Y33910000D02*
X23000000Y34800000D01*
X20710000Y33910000D02*
X22110000Y33910000D01*
X20350000Y39400000D02*
X22950000Y36800000D01*
X5000000Y37100000D02*
X7300000Y39400000D01*
X5000000Y23400000D02*
X5000000Y37100000D01*
X7300000Y39400000D02*
X20350000Y39400000D01*
X3610000Y22010000D02*
X5000000Y23400000D01*
X2525000Y22010000D02*
X3610000Y22010000D01*
D24*
%TO.N,Net-(U2-DIS)*%
X20600000Y13360000D02*
X20600000Y15900000D01*
X21260000Y12700000D02*
X20600000Y13360000D01*
X23850000Y12700000D02*
X21260000Y12700000D01*
D23*
%TO.N,Net-(J2-Pin_2)*%
X8835000Y15900000D02*
X6600000Y13665000D01*
X12980000Y15900000D02*
X8835000Y15900000D01*
%TO.N,+5V*%
X3300000Y11125000D02*
X6600000Y11125000D01*
X2525000Y11900000D02*
X3300000Y11125000D01*
X2525000Y11900000D02*
X2525000Y4475000D01*
D24*
%TO.N,Net-(U2-DIS)*%
X23850000Y12700000D02*
X23850000Y14850000D01*
X23850000Y14850000D02*
X25600000Y16600000D01*
D23*
%TO.N,+5V*%
X29300000Y12700000D02*
X26950000Y12700000D01*
X30800000Y5000000D02*
X30800000Y11200000D01*
X28100000Y2300000D02*
X30800000Y5000000D01*
X8200000Y2300000D02*
X28100000Y2300000D01*
X30800000Y11200000D02*
X29300000Y12700000D01*
D24*
%TO.N,GND*%
X15462500Y4837500D02*
X15500000Y4800000D01*
X15462500Y7600000D02*
X15462500Y4837500D01*
X15700000Y4600000D02*
X15500000Y4800000D01*
X17912500Y4600000D02*
X15700000Y4600000D01*
X26962500Y8537500D02*
X27100000Y8400000D01*
X26962500Y10300000D02*
X26962500Y8537500D01*
%TO.N,Net-(U2-CV)*%
X23317500Y10820000D02*
X23837500Y10300000D01*
X20600000Y10820000D02*
X23317500Y10820000D01*
%TO.N,GND*%
X7900000Y25600000D02*
X7900000Y28100000D01*
X32500000Y16600000D02*
X30100000Y16600000D01*
X32550000Y16550000D02*
X32500000Y16600000D01*
X30000000Y35100000D02*
X30000000Y37800000D01*
X17637500Y22037500D02*
X16600000Y21000000D01*
X17637500Y23000000D02*
X17637500Y22037500D01*
X15562500Y22037500D02*
X16600000Y21000000D01*
X15562500Y23000000D02*
X15562500Y22037500D01*
D23*
%TO.N,Net-(U1-Q)*%
X19100000Y27800000D02*
X19200000Y27700000D01*
X18300000Y27800000D02*
X19100000Y27800000D01*
X13090000Y28830000D02*
X17270000Y28830000D01*
X17270000Y28830000D02*
X18300000Y27800000D01*
%TO.N,Net-(U2-Q)*%
X17850000Y8490000D02*
X17850000Y7600000D01*
X12980000Y13360000D02*
X17850000Y8490000D01*
%TO.N,+5V*%
X12337500Y10177500D02*
X12980000Y10820000D01*
X12337500Y7600000D02*
X12337500Y10177500D01*
X12337500Y6437500D02*
X12337500Y7600000D01*
X8200000Y2300000D02*
X12337500Y6437500D01*
X4700000Y2300000D02*
X8200000Y2300000D01*
X2525000Y4475000D02*
X4700000Y2300000D01*
X2525000Y22010000D02*
X2525000Y11900000D01*
D25*
%TO.N,Net-(U1-CV)*%
X20710000Y26290000D02*
X20710000Y23052500D01*
D24*
X20710000Y23052500D02*
X20762500Y23000000D01*
D25*
%TO.N,Net-(D1-A)*%
X26600000Y22912500D02*
X26587500Y22900000D01*
X26600000Y25800000D02*
X26600000Y22912500D01*
D26*
%TO.N,Net-(U1-DIS)*%
X23520000Y31370000D02*
X23800000Y31650000D01*
X20710000Y31370000D02*
X23520000Y31370000D01*
%TO.N,Net-(U1-THR)*%
X28850000Y28550000D02*
X30000000Y29700000D01*
X23800000Y28550000D02*
X28850000Y28550000D01*
D24*
X23520000Y28830000D02*
X23800000Y28550000D01*
D26*
X20710000Y28830000D02*
X23520000Y28830000D01*
X13090000Y31370000D02*
X18170000Y31370000D01*
X18170000Y31370000D02*
X20710000Y28830000D01*
D23*
%TO.N,+5V*%
X7090000Y22010000D02*
X7900000Y21200000D01*
X12437500Y23000000D02*
X12437500Y25637500D01*
X12437500Y25637500D02*
X13090000Y26290000D01*
X10637500Y21200000D02*
X12437500Y23000000D01*
X7900000Y21200000D02*
X10637500Y21200000D01*
X2525000Y22010000D02*
X7090000Y22010000D01*
D27*
%TO.N,Net-(U1-Q)*%
X21809000Y27491000D02*
X23500000Y25800000D01*
D24*
X19409000Y27491000D02*
X21809000Y27491000D01*
X19100000Y27800000D02*
X19409000Y27491000D01*
%TD*%
%TA.AperFunction,Conductor*%
%TO.N,GND*%
G36*
X19067996Y38279815D02*
G01*
X19113751Y38227011D01*
X19123695Y38157853D01*
X19094670Y38094297D01*
X19066054Y38069961D01*
X18981342Y38017711D01*
X18857289Y37893658D01*
X18765187Y37744337D01*
X18765186Y37744334D01*
X18710001Y37577797D01*
X18710001Y37577796D01*
X18710000Y37577796D01*
X18699500Y37475017D01*
X18699500Y37141520D01*
X18679815Y37074481D01*
X18663181Y37053839D01*
X18055888Y36446547D01*
X18055887Y36446546D01*
X17979222Y36331808D01*
X17926421Y36204333D01*
X17926418Y36204321D01*
X17902301Y36083076D01*
X17899500Y36068995D01*
X17899500Y36068993D01*
X17899500Y33548994D01*
X17899500Y33411006D01*
X17899500Y33411004D01*
X17899499Y33411004D01*
X17926418Y33275678D01*
X17926421Y33275668D01*
X17979222Y33148193D01*
X18055887Y33033455D01*
X18055888Y33033454D01*
X19393194Y31696149D01*
X19395815Y31691348D01*
X19400376Y31688324D01*
X19412381Y31661010D01*
X19426679Y31634826D01*
X19426872Y31628041D01*
X19428490Y31624361D01*
X19427986Y31589070D01*
X19418888Y31531627D01*
X19388959Y31468492D01*
X19329648Y31431561D01*
X19259785Y31432559D01*
X19208734Y31463344D01*
X18680292Y31991787D01*
X18680288Y31991790D01*
X18549185Y32079391D01*
X18549172Y32079398D01*
X18403501Y32139736D01*
X18403489Y32139739D01*
X18248845Y32170500D01*
X18248842Y32170500D01*
X14179033Y32170500D01*
X14111994Y32190185D01*
X14084748Y32213962D01*
X14081964Y32217221D01*
X13937217Y32361968D01*
X13937212Y32361972D01*
X13843051Y32430384D01*
X13800385Y32485714D01*
X13794406Y32555327D01*
X13827012Y32617122D01*
X13876933Y32648408D01*
X13959117Y32675641D01*
X13959124Y32675644D01*
X14108345Y32767685D01*
X14232315Y32891655D01*
X14324356Y33040876D01*
X14324358Y33040881D01*
X14379505Y33207303D01*
X14379506Y33207310D01*
X14389999Y33310014D01*
X14390000Y33310027D01*
X14390000Y33660000D01*
X13405686Y33660000D01*
X13410080Y33664394D01*
X13462741Y33755606D01*
X13490000Y33857339D01*
X13490000Y33962661D01*
X13462741Y34064394D01*
X13410080Y34155606D01*
X13405686Y34160000D01*
X14389999Y34160000D01*
X14389999Y34509972D01*
X14389998Y34509987D01*
X14379505Y34612698D01*
X14324358Y34779120D01*
X14324356Y34779125D01*
X14232315Y34928346D01*
X14108345Y35052316D01*
X13959124Y35144357D01*
X13959119Y35144359D01*
X13792697Y35199506D01*
X13792690Y35199507D01*
X13689986Y35210000D01*
X13340000Y35210000D01*
X13340000Y34225686D01*
X13335606Y34230080D01*
X13244394Y34282741D01*
X13142661Y34310000D01*
X13037339Y34310000D01*
X12935606Y34282741D01*
X12844394Y34230080D01*
X12840000Y34225686D01*
X12840000Y35210000D01*
X12490028Y35210000D01*
X12490012Y35209999D01*
X12387302Y35199506D01*
X12220880Y35144359D01*
X12220875Y35144357D01*
X12071654Y35052316D01*
X11947684Y34928346D01*
X11855643Y34779125D01*
X11855641Y34779120D01*
X11800494Y34612698D01*
X11800493Y34612691D01*
X11790000Y34509987D01*
X11790000Y34160000D01*
X12774314Y34160000D01*
X12769920Y34155606D01*
X12717259Y34064394D01*
X12690000Y33962661D01*
X12690000Y33857339D01*
X12717259Y33755606D01*
X12769920Y33664394D01*
X12774314Y33660000D01*
X11790001Y33660000D01*
X11790001Y33310014D01*
X11800494Y33207303D01*
X11855641Y33040881D01*
X11855643Y33040876D01*
X11947684Y32891655D01*
X12071654Y32767685D01*
X12220875Y32675644D01*
X12220882Y32675641D01*
X12303067Y32648408D01*
X12360512Y32608636D01*
X12387336Y32544120D01*
X12375021Y32475344D01*
X12336949Y32430384D01*
X12242787Y32361972D01*
X12242782Y32361968D01*
X12098028Y32217214D01*
X11977715Y32051614D01*
X11884781Y31869224D01*
X11821522Y31674535D01*
X11789500Y31472352D01*
X11789500Y31267649D01*
X11821522Y31065466D01*
X11884781Y30870777D01*
X11977715Y30688387D01*
X12098028Y30522787D01*
X12242786Y30378029D01*
X12397749Y30265444D01*
X12408390Y30257713D01*
X12499840Y30211117D01*
X12501080Y30210485D01*
X12551876Y30162510D01*
X12568671Y30094689D01*
X12546134Y30028554D01*
X12501080Y29989515D01*
X12408386Y29942285D01*
X12242786Y29821972D01*
X12098028Y29677214D01*
X11977715Y29511614D01*
X11884781Y29329224D01*
X11821522Y29134535D01*
X11789500Y28932352D01*
X11789500Y28727649D01*
X11821522Y28525466D01*
X11884781Y28330777D01*
X11948691Y28205347D01*
X11976897Y28149991D01*
X11977715Y28148387D01*
X12098028Y27982787D01*
X12242786Y27838029D01*
X12381400Y27737322D01*
X12408390Y27717713D01*
X12479768Y27681344D01*
X12501080Y27670485D01*
X12551876Y27622510D01*
X12568671Y27554689D01*
X12546134Y27488554D01*
X12501080Y27449515D01*
X12408386Y27402285D01*
X12242786Y27281972D01*
X12098028Y27137214D01*
X11977715Y26971614D01*
X11884781Y26789222D01*
X11822700Y26598157D01*
X11815713Y26586756D01*
X11813602Y26577049D01*
X11792451Y26548794D01*
X11720572Y26476914D01*
X11598085Y26354427D01*
X11496268Y26214289D01*
X11417628Y26059948D01*
X11364097Y25895198D01*
X11337000Y25724111D01*
X11337000Y23979730D01*
X11330706Y23940727D01*
X11285002Y23802801D01*
X11285000Y23802791D01*
X11274500Y23700017D01*
X11274500Y23444705D01*
X11254815Y23377666D01*
X11238181Y23357024D01*
X10217977Y22336819D01*
X10156654Y22303334D01*
X10130296Y22300500D01*
X9324499Y22300500D01*
X9257460Y22320185D01*
X9211705Y22372989D01*
X9200499Y22424500D01*
X9200499Y22500002D01*
X9200498Y22500019D01*
X9189999Y22602797D01*
X9189998Y22602800D01*
X9174357Y22650000D01*
X9134814Y22769334D01*
X9042712Y22918656D01*
X8918656Y23042712D01*
X8769334Y23134814D01*
X8602797Y23189999D01*
X8602795Y23190000D01*
X8500010Y23200500D01*
X7299998Y23200500D01*
X7299981Y23200499D01*
X7197203Y23190000D01*
X7197200Y23189999D01*
X7076494Y23150000D01*
X7030666Y23134814D01*
X7021174Y23128960D01*
X6956081Y23110500D01*
X6213551Y23110500D01*
X6146512Y23130185D01*
X6100757Y23182989D01*
X6090813Y23252147D01*
X6091077Y23253897D01*
X6100500Y23313389D01*
X6100500Y23486611D01*
X6100500Y24300014D01*
X6600001Y24300014D01*
X6610494Y24197303D01*
X6665641Y24030881D01*
X6665643Y24030876D01*
X6757684Y23881655D01*
X6881654Y23757685D01*
X7030875Y23665644D01*
X7030880Y23665642D01*
X7197302Y23610495D01*
X7197309Y23610494D01*
X7300019Y23600001D01*
X7649999Y23600001D01*
X8150000Y23600001D01*
X8499972Y23600001D01*
X8499986Y23600002D01*
X8602697Y23610495D01*
X8769119Y23665642D01*
X8769124Y23665644D01*
X8918345Y23757685D01*
X9042315Y23881655D01*
X9134356Y24030876D01*
X9134358Y24030881D01*
X9189505Y24197303D01*
X9189506Y24197310D01*
X9199999Y24300014D01*
X9200000Y24300027D01*
X9200000Y25350000D01*
X8150000Y25350000D01*
X8150000Y23600001D01*
X7649999Y23600001D01*
X7650000Y23600002D01*
X7650000Y25350000D01*
X6600001Y25350000D01*
X6600001Y24300014D01*
X6100500Y24300014D01*
X6100500Y26899987D01*
X6600000Y26899987D01*
X6600000Y25850000D01*
X7650000Y25850000D01*
X8150000Y25850000D01*
X9199999Y25850000D01*
X9199999Y26899972D01*
X9199998Y26899987D01*
X9189505Y27002698D01*
X9134358Y27169120D01*
X9134356Y27169125D01*
X9042315Y27318346D01*
X8918345Y27442316D01*
X8769124Y27534357D01*
X8769119Y27534359D01*
X8602697Y27589506D01*
X8602690Y27589507D01*
X8499986Y27600000D01*
X8150000Y27600000D01*
X8150000Y25850000D01*
X7650000Y25850000D01*
X7650000Y27600000D01*
X7300028Y27600000D01*
X7300012Y27599999D01*
X7197302Y27589506D01*
X7030880Y27534359D01*
X7030875Y27534357D01*
X6881654Y27442316D01*
X6757684Y27318346D01*
X6665643Y27169125D01*
X6665641Y27169120D01*
X6610494Y27002698D01*
X6610493Y27002691D01*
X6600000Y26899987D01*
X6100500Y26899987D01*
X6100500Y36592796D01*
X6120185Y36659835D01*
X6136819Y36680477D01*
X7719523Y38263181D01*
X7780846Y38296666D01*
X7807204Y38299500D01*
X19000957Y38299500D01*
X19067996Y38279815D01*
G37*
%TD.AperFunction*%
%TA.AperFunction,Conductor*%
G36*
X33842539Y40879815D02*
G01*
X33888294Y40827011D01*
X33899500Y40775500D01*
X33899500Y624500D01*
X33879815Y557461D01*
X33827011Y511706D01*
X33775500Y500500D01*
X624500Y500500D01*
X557461Y520185D01*
X511706Y572989D01*
X500500Y624500D01*
X500500Y22116287D01*
X1174500Y22116287D01*
X1174500Y21903714D01*
X1197691Y21757288D01*
X1207754Y21693757D01*
X1262749Y21524500D01*
X1273444Y21491586D01*
X1369949Y21302183D01*
X1384296Y21282436D01*
X1400817Y21259697D01*
X1424298Y21193893D01*
X1424500Y21186812D01*
X1424500Y4388390D01*
X1441180Y4283072D01*
X1451598Y4217299D01*
X1505127Y4052555D01*
X1583768Y3898212D01*
X1685586Y3758072D01*
X3860585Y1583073D01*
X3860586Y1583072D01*
X3983072Y1460586D01*
X4123212Y1358768D01*
X4277555Y1280127D01*
X4442299Y1226598D01*
X4613389Y1199500D01*
X4613390Y1199500D01*
X28186610Y1199500D01*
X28186611Y1199500D01*
X28357701Y1226598D01*
X28522445Y1280127D01*
X28676788Y1358768D01*
X28816928Y1460586D01*
X31639415Y4283072D01*
X31698384Y4364238D01*
X31698386Y4364240D01*
X31741229Y4423208D01*
X31741228Y4423208D01*
X31741232Y4423212D01*
X31819873Y4577555D01*
X31873403Y4742299D01*
X31876672Y4762946D01*
X31900500Y4913385D01*
X31900500Y11286611D01*
X31873402Y11457699D01*
X31873402Y11457701D01*
X31859134Y11501614D01*
X31852997Y11520501D01*
X31819874Y11622444D01*
X31819873Y11622447D01*
X31751994Y11755666D01*
X31741232Y11776788D01*
X31639414Y11916928D01*
X30016928Y13539414D01*
X29876788Y13641232D01*
X29722445Y13719873D01*
X29557701Y13773402D01*
X29557699Y13773403D01*
X29557698Y13773403D01*
X29426271Y13794219D01*
X29386611Y13800500D01*
X29386610Y13800500D01*
X27987230Y13800500D01*
X27920191Y13820185D01*
X27899549Y13836819D01*
X27818657Y13917711D01*
X27818656Y13917712D01*
X27669334Y14009814D01*
X27502797Y14064999D01*
X27502795Y14065000D01*
X27400010Y14075500D01*
X26499998Y14075500D01*
X26499980Y14075499D01*
X26397203Y14065000D01*
X26397200Y14064999D01*
X26230668Y14009815D01*
X26230663Y14009813D01*
X26081342Y13917711D01*
X25957289Y13793658D01*
X25865187Y13644337D01*
X25865186Y13644334D01*
X25810001Y13477797D01*
X25810001Y13477796D01*
X25810000Y13477796D01*
X25799500Y13375017D01*
X25799500Y12024999D01*
X25799501Y12024982D01*
X25810000Y11922204D01*
X25810001Y11922201D01*
X25858187Y11776788D01*
X25865186Y11755666D01*
X25947357Y11622444D01*
X25957289Y11606343D01*
X25963804Y11599828D01*
X25997289Y11538505D01*
X25992305Y11468813D01*
X25963808Y11424470D01*
X25957685Y11418347D01*
X25957684Y11418347D01*
X25865643Y11269125D01*
X25865641Y11269120D01*
X25810494Y11102698D01*
X25810493Y11102691D01*
X25800000Y10999987D01*
X25800000Y10550000D01*
X28124999Y10550000D01*
X28124999Y10999972D01*
X28124998Y10999987D01*
X28114505Y11102698D01*
X28059358Y11269120D01*
X28059356Y11269125D01*
X27972215Y11410403D01*
X27953775Y11477796D01*
X27974698Y11544459D01*
X28028340Y11589229D01*
X28077754Y11599500D01*
X28792796Y11599500D01*
X28859835Y11579815D01*
X28880477Y11563181D01*
X29663181Y10780477D01*
X29696666Y10719154D01*
X29699500Y10692796D01*
X29699500Y5507205D01*
X29679815Y5440166D01*
X29663181Y5419524D01*
X27680477Y3436819D01*
X27619154Y3403334D01*
X27592796Y3400500D01*
X22099600Y3400500D01*
X22032561Y3420185D01*
X21986806Y3472989D01*
X21976862Y3542147D01*
X21994062Y3589598D01*
X22034814Y3655666D01*
X22089999Y3822203D01*
X22100500Y3924992D01*
X22100500Y5275008D01*
X22089999Y5377797D01*
X22034814Y5544334D01*
X22034810Y5544340D01*
X22034809Y5544343D01*
X22006462Y5590300D01*
X21988000Y5655397D01*
X21988000Y6544602D01*
X22006461Y6609699D01*
X22034814Y6655666D01*
X22089999Y6822203D01*
X22100500Y6924991D01*
X22100499Y8275008D01*
X22089999Y8377797D01*
X22034814Y8544334D01*
X21942712Y8693656D01*
X21818656Y8817712D01*
X21669334Y8909814D01*
X21502797Y8964999D01*
X21502795Y8965000D01*
X21400010Y8975500D01*
X20499998Y8975500D01*
X20499980Y8975499D01*
X20397203Y8965000D01*
X20397200Y8964999D01*
X20230668Y8909815D01*
X20230663Y8909813D01*
X20081342Y8817711D01*
X19957289Y8693658D01*
X19865187Y8544337D01*
X19865185Y8544332D01*
X19856131Y8517008D01*
X19810001Y8377797D01*
X19810001Y8377796D01*
X19810000Y8377796D01*
X19799500Y8275017D01*
X19799500Y7712793D01*
X19797973Y7693395D01*
X19787000Y7624116D01*
X19787000Y5655397D01*
X19768538Y5590300D01*
X19740190Y5544343D01*
X19740185Y5544332D01*
X19712349Y5460330D01*
X19685001Y5377797D01*
X19685001Y5377796D01*
X19685000Y5377796D01*
X19674500Y5275016D01*
X19674500Y3924985D01*
X19685000Y3822205D01*
X19685001Y3822203D01*
X19740186Y3655666D01*
X19771004Y3605703D01*
X19780938Y3589598D01*
X19799379Y3522205D01*
X19778457Y3455542D01*
X19724815Y3410772D01*
X19675400Y3400500D01*
X19124013Y3400500D01*
X19056974Y3420185D01*
X19011219Y3472989D01*
X19001275Y3542147D01*
X19018475Y3589597D01*
X19059353Y3655871D01*
X19059358Y3655882D01*
X19114505Y3822304D01*
X19114506Y3822311D01*
X19124999Y3925015D01*
X19125000Y3925028D01*
X19125000Y4350000D01*
X16700000Y4350000D01*
X16700000Y3925015D01*
X16710493Y3822311D01*
X16710494Y3822304D01*
X16765641Y3655882D01*
X16765646Y3655871D01*
X16806525Y3589597D01*
X16824966Y3522205D01*
X16804044Y3455541D01*
X16750402Y3410772D01*
X16700987Y3400500D01*
X11156204Y3400500D01*
X11089165Y3420185D01*
X11043410Y3472989D01*
X11033466Y3542147D01*
X11062491Y3605703D01*
X11068523Y3612181D01*
X12731329Y5274986D01*
X16700000Y5274986D01*
X16700000Y4850000D01*
X17662500Y4850000D01*
X18162500Y4850000D01*
X19125000Y4850000D01*
X19125000Y5274973D01*
X19124999Y5274986D01*
X19114506Y5377690D01*
X19114505Y5377697D01*
X19059358Y5544119D01*
X19059356Y5544124D01*
X18967315Y5693345D01*
X18843344Y5817316D01*
X18694123Y5909357D01*
X18694118Y5909359D01*
X18527696Y5964506D01*
X18527689Y5964507D01*
X18424985Y5975000D01*
X18162500Y5975000D01*
X18162500Y4850000D01*
X17662500Y4850000D01*
X17662500Y5975000D01*
X17400014Y5975000D01*
X17297310Y5964507D01*
X17297303Y5964506D01*
X17130881Y5909359D01*
X17130876Y5909357D01*
X16981655Y5817316D01*
X16857684Y5693345D01*
X16765643Y5544124D01*
X16765641Y5544119D01*
X16710494Y5377697D01*
X16710493Y5377690D01*
X16700000Y5274986D01*
X12731329Y5274986D01*
X12822159Y5365816D01*
X12963548Y5507205D01*
X13176915Y5720572D01*
X13247490Y5817711D01*
X13278732Y5860712D01*
X13357373Y6015055D01*
X13410903Y6179799D01*
X13428386Y6290186D01*
X13438000Y6350885D01*
X13438000Y6620272D01*
X13444294Y6659276D01*
X13489999Y6797203D01*
X13500500Y6899991D01*
X13500500Y6900014D01*
X14300001Y6900014D01*
X14310494Y6797303D01*
X14365641Y6630881D01*
X14365643Y6630876D01*
X14457684Y6481655D01*
X14581654Y6357685D01*
X14730875Y6265644D01*
X14730880Y6265642D01*
X14897302Y6210495D01*
X14897309Y6210494D01*
X15000019Y6200001D01*
X15212499Y6200001D01*
X15212500Y6200002D01*
X15212500Y7350000D01*
X14300001Y7350000D01*
X14300001Y6900014D01*
X13500500Y6900014D01*
X13500499Y7624111D01*
X13500499Y8299987D01*
X14300000Y8299987D01*
X14300000Y7850000D01*
X15212500Y7850000D01*
X15212500Y9000000D01*
X15000029Y9000000D01*
X15000012Y8999999D01*
X14897302Y8989506D01*
X14730880Y8934359D01*
X14730875Y8934357D01*
X14581654Y8842316D01*
X14457684Y8718346D01*
X14365643Y8569125D01*
X14365641Y8569120D01*
X14310494Y8402698D01*
X14310493Y8402691D01*
X14300000Y8299987D01*
X13500499Y8299987D01*
X13500499Y8300002D01*
X13500498Y8300019D01*
X13489999Y8402797D01*
X13489998Y8402800D01*
X13444294Y8540727D01*
X13438000Y8579731D01*
X13438000Y9517791D01*
X13457685Y9584830D01*
X13505703Y9628275D01*
X13661610Y9707713D01*
X13682770Y9723087D01*
X13827213Y9828029D01*
X13827215Y9828032D01*
X13827219Y9828034D01*
X13971966Y9972781D01*
X13971968Y9972785D01*
X13971971Y9972787D01*
X14041425Y10068384D01*
X14092287Y10138390D01*
X14185220Y10320781D01*
X14190782Y10337901D01*
X14230218Y10395576D01*
X14294577Y10422775D01*
X14363423Y10410861D01*
X14396394Y10387264D01*
X15676181Y9107477D01*
X15709666Y9046154D01*
X15712500Y9019796D01*
X15712500Y6200001D01*
X15924972Y6200001D01*
X15924986Y6200002D01*
X16027697Y6210495D01*
X16194119Y6265642D01*
X16194124Y6265644D01*
X16343345Y6357685D01*
X16467315Y6481655D01*
X16563149Y6637025D01*
X16565354Y6635665D01*
X16603495Y6679016D01*
X16670681Y6698193D01*
X16737570Y6678003D01*
X16775284Y6639294D01*
X16809215Y6584282D01*
X16857288Y6506344D01*
X16981344Y6382288D01*
X17130666Y6290186D01*
X17297203Y6235001D01*
X17399991Y6224500D01*
X18300008Y6224501D01*
X18300016Y6224502D01*
X18300019Y6224502D01*
X18356302Y6230252D01*
X18402797Y6235001D01*
X18569334Y6290186D01*
X18718656Y6382288D01*
X18842712Y6506344D01*
X18934814Y6655666D01*
X18989999Y6822203D01*
X19000500Y6924991D01*
X19000499Y8275008D01*
X18989999Y8377797D01*
X18981714Y8402800D01*
X18956794Y8478004D01*
X18950500Y8517008D01*
X18950500Y8576611D01*
X18931962Y8693656D01*
X18923402Y8747701D01*
X18869873Y8912445D01*
X18791232Y9066788D01*
X18689414Y9206928D01*
X18566928Y9329414D01*
X14277551Y13618791D01*
X14247301Y13668154D01*
X14236768Y13700569D01*
X14185220Y13859219D01*
X14092287Y14041610D01*
X14075293Y14065000D01*
X13971971Y14207214D01*
X13827213Y14351972D01*
X13661614Y14472285D01*
X13652837Y14476757D01*
X13568917Y14519517D01*
X13518123Y14567489D01*
X13501328Y14635310D01*
X13523865Y14701445D01*
X13568917Y14740484D01*
X13661610Y14787713D01*
X13731615Y14838574D01*
X13827213Y14908029D01*
X13827215Y14908032D01*
X13827219Y14908034D01*
X13971966Y15052781D01*
X13971968Y15052785D01*
X13971971Y15052787D01*
X14024732Y15125410D01*
X14092287Y15218390D01*
X14185220Y15400781D01*
X14248477Y15595466D01*
X14280500Y15797648D01*
X14280500Y16002352D01*
X14248477Y16204534D01*
X14185220Y16399219D01*
X14185218Y16399222D01*
X14185218Y16399224D01*
X14151503Y16465393D01*
X14092287Y16581610D01*
X14084556Y16592251D01*
X13971971Y16747214D01*
X13827217Y16891968D01*
X13827212Y16891972D01*
X13733051Y16960384D01*
X13690385Y17015714D01*
X13684406Y17085327D01*
X13717012Y17147122D01*
X13766933Y17178408D01*
X13849117Y17205641D01*
X13849124Y17205644D01*
X13998345Y17297685D01*
X14122315Y17421655D01*
X14214356Y17570876D01*
X14214358Y17570881D01*
X14269505Y17737303D01*
X14269506Y17737310D01*
X14279999Y17840014D01*
X14280000Y17840027D01*
X14280000Y18190000D01*
X13295686Y18190000D01*
X13300080Y18194394D01*
X13352741Y18285606D01*
X13380000Y18387339D01*
X13380000Y18492661D01*
X13366685Y18542352D01*
X19299500Y18542352D01*
X19299500Y18337649D01*
X19331522Y18135466D01*
X19394781Y17940777D01*
X19487715Y17758387D01*
X19608028Y17592787D01*
X19752786Y17448029D01*
X19907749Y17335444D01*
X19918390Y17327713D01*
X20009840Y17281117D01*
X20011080Y17280485D01*
X20061876Y17232510D01*
X20078671Y17164689D01*
X20056134Y17098554D01*
X20011080Y17059515D01*
X19918386Y17012285D01*
X19752786Y16891972D01*
X19608028Y16747214D01*
X19487715Y16581614D01*
X19394781Y16399224D01*
X19331522Y16204535D01*
X19299500Y16002352D01*
X19299500Y15797649D01*
X19331522Y15595466D01*
X19394781Y15400777D01*
X19487715Y15218387D01*
X19608028Y15052787D01*
X19752784Y14908031D01*
X19848385Y14838574D01*
X19851725Y14834243D01*
X19856703Y14831969D01*
X19872833Y14806870D01*
X19891051Y14783245D01*
X19892304Y14776572D01*
X19894477Y14773191D01*
X19899500Y14738256D01*
X19899500Y14521745D01*
X19879815Y14454706D01*
X19848385Y14421427D01*
X19752787Y14351972D01*
X19752782Y14351968D01*
X19608028Y14207214D01*
X19487715Y14041614D01*
X19394781Y13859224D01*
X19331522Y13664535D01*
X19299500Y13462352D01*
X19299500Y13257649D01*
X19331522Y13055466D01*
X19394781Y12860777D01*
X19487715Y12678387D01*
X19608028Y12512787D01*
X19752786Y12368029D01*
X19907749Y12255444D01*
X19918390Y12247713D01*
X20009840Y12201117D01*
X20011080Y12200485D01*
X20061876Y12152510D01*
X20078671Y12084689D01*
X20056134Y12018554D01*
X20011080Y11979515D01*
X19918386Y11932285D01*
X19752786Y11811972D01*
X19608028Y11667214D01*
X19487715Y11501614D01*
X19394781Y11319224D01*
X19331522Y11124535D01*
X19299500Y10922352D01*
X19299500Y10717649D01*
X19331522Y10515466D01*
X19394781Y10320777D01*
X19487715Y10138387D01*
X19608028Y9972787D01*
X19752786Y9828029D01*
X19907749Y9715444D01*
X19918390Y9707713D01*
X20034607Y9648497D01*
X20100776Y9614782D01*
X20100778Y9614782D01*
X20100781Y9614780D01*
X20146325Y9599982D01*
X20295465Y9551523D01*
X20396557Y9535512D01*
X20497648Y9519500D01*
X20497649Y9519500D01*
X20702351Y9519500D01*
X20702352Y9519500D01*
X20904534Y9551523D01*
X21099219Y9614780D01*
X21281610Y9707713D01*
X21374590Y9775268D01*
X21447213Y9828029D01*
X21447215Y9828032D01*
X21447219Y9828034D01*
X21591966Y9972781D01*
X21661425Y10068385D01*
X21716755Y10111051D01*
X21761744Y10119500D01*
X22550501Y10119500D01*
X22617540Y10099815D01*
X22663295Y10047011D01*
X22674501Y9995500D01*
X22674501Y9599982D01*
X22685000Y9497204D01*
X22685001Y9497201D01*
X22740115Y9330881D01*
X22740186Y9330666D01*
X22832288Y9181344D01*
X22956344Y9057288D01*
X23105666Y8965186D01*
X23272203Y8910001D01*
X23374991Y8899500D01*
X24300008Y8899501D01*
X24300016Y8899502D01*
X24300019Y8899502D01*
X24356302Y8905252D01*
X24402797Y8910001D01*
X24569334Y8965186D01*
X24718656Y9057288D01*
X24842712Y9181344D01*
X24934814Y9330666D01*
X24989999Y9497203D01*
X25000500Y9599991D01*
X25000500Y9600014D01*
X25800001Y9600014D01*
X25810494Y9497303D01*
X25865641Y9330881D01*
X25865643Y9330876D01*
X25957684Y9181655D01*
X26081654Y9057685D01*
X26230875Y8965644D01*
X26230880Y8965642D01*
X26397302Y8910495D01*
X26397309Y8910494D01*
X26500019Y8900001D01*
X26712499Y8900001D01*
X27212500Y8900001D01*
X27424972Y8900001D01*
X27424986Y8900002D01*
X27527697Y8910495D01*
X27694119Y8965642D01*
X27694124Y8965644D01*
X27843345Y9057685D01*
X27967315Y9181655D01*
X28059356Y9330876D01*
X28059358Y9330881D01*
X28114505Y9497303D01*
X28114506Y9497310D01*
X28124999Y9600014D01*
X28125000Y9600027D01*
X28125000Y10050000D01*
X27212500Y10050000D01*
X27212500Y8900001D01*
X26712499Y8900001D01*
X26712500Y8900002D01*
X26712500Y10050000D01*
X25800001Y10050000D01*
X25800001Y9600014D01*
X25000500Y9600014D01*
X25000499Y10320777D01*
X25000499Y11000002D01*
X25000498Y11000019D01*
X24989999Y11102797D01*
X24989998Y11102800D01*
X24982796Y11124535D01*
X24934814Y11269334D01*
X24842712Y11418656D01*
X24836549Y11424819D01*
X24803064Y11486142D01*
X24808048Y11555834D01*
X24836549Y11600181D01*
X24842712Y11606344D01*
X24934814Y11755666D01*
X24989999Y11922203D01*
X25000500Y12024991D01*
X25000499Y13375008D01*
X24989999Y13477797D01*
X24934814Y13644334D01*
X24842712Y13793656D01*
X24718656Y13917712D01*
X24609402Y13985100D01*
X24562679Y14037047D01*
X24550500Y14090638D01*
X24550500Y14508482D01*
X24570185Y14575521D01*
X24586815Y14596159D01*
X25253838Y15263183D01*
X25315161Y15296667D01*
X25341519Y15299501D01*
X26700002Y15299501D01*
X26700008Y15299501D01*
X26802797Y15310001D01*
X26969334Y15365186D01*
X27118656Y15457288D01*
X27242712Y15581344D01*
X27294755Y15665721D01*
X27346701Y15712444D01*
X27415664Y15723667D01*
X27479746Y15695824D01*
X27505831Y15665720D01*
X27557680Y15581660D01*
X27557683Y15581656D01*
X27681654Y15457685D01*
X27830875Y15365644D01*
X27830880Y15365642D01*
X27997302Y15310495D01*
X27997309Y15310494D01*
X28100019Y15300001D01*
X28949999Y15300001D01*
X29450000Y15300001D01*
X30299972Y15300001D01*
X30299986Y15300002D01*
X30402697Y15310495D01*
X30569119Y15365642D01*
X30569124Y15365644D01*
X30718345Y15457685D01*
X30842315Y15581655D01*
X30934356Y15730876D01*
X30934358Y15730881D01*
X30989505Y15897303D01*
X30989506Y15897310D01*
X30999999Y16000014D01*
X31000000Y16000027D01*
X31000000Y16350000D01*
X29450000Y16350000D01*
X29450000Y15300001D01*
X28949999Y15300001D01*
X28950000Y15300002D01*
X28950000Y16850000D01*
X29450000Y16850000D01*
X30999999Y16850000D01*
X30999999Y17199972D01*
X30999998Y17199987D01*
X30989505Y17302698D01*
X30934358Y17469120D01*
X30934356Y17469125D01*
X30842315Y17618346D01*
X30718345Y17742316D01*
X30569124Y17834357D01*
X30569119Y17834359D01*
X30402697Y17889506D01*
X30402690Y17889507D01*
X30299986Y17900000D01*
X29450000Y17900000D01*
X29450000Y16850000D01*
X28950000Y16850000D01*
X28950000Y17900000D01*
X28100028Y17900000D01*
X28100012Y17899999D01*
X27997302Y17889506D01*
X27830880Y17834359D01*
X27830875Y17834357D01*
X27681654Y17742316D01*
X27557682Y17618344D01*
X27505831Y17534280D01*
X27453883Y17487556D01*
X27384920Y17476335D01*
X27320838Y17504178D01*
X27294754Y17534282D01*
X27242712Y17618656D01*
X27118657Y17742711D01*
X27118656Y17742712D01*
X26969334Y17834814D01*
X26802797Y17889999D01*
X26802795Y17890000D01*
X26700010Y17900500D01*
X24499998Y17900500D01*
X24499981Y17900499D01*
X24397203Y17890000D01*
X24397200Y17889999D01*
X24230668Y17834815D01*
X24230663Y17834813D01*
X24081342Y17742711D01*
X23957289Y17618658D01*
X23865187Y17469337D01*
X23865185Y17469332D01*
X23865115Y17469120D01*
X23810001Y17302797D01*
X23810001Y17302796D01*
X23810000Y17302796D01*
X23799500Y17200017D01*
X23799500Y15999999D01*
X23799501Y15999982D01*
X23810000Y15897204D01*
X23811419Y15890578D01*
X23810214Y15890321D01*
X23812369Y15827447D01*
X23779946Y15770605D01*
X23305887Y15296546D01*
X23283595Y15263182D01*
X23253666Y15218390D01*
X23237483Y15194171D01*
X23229228Y15181816D01*
X23229223Y15181808D01*
X23176420Y15054329D01*
X23176418Y15054323D01*
X23149500Y14918996D01*
X23149500Y14090638D01*
X23129815Y14023599D01*
X23090598Y13985101D01*
X23084345Y13981243D01*
X22981342Y13917711D01*
X22857289Y13793658D01*
X22765187Y13644337D01*
X22765186Y13644334D01*
X22712551Y13485494D01*
X22672781Y13428051D01*
X22608265Y13401228D01*
X22594847Y13400500D01*
X22016202Y13400500D01*
X21949163Y13420185D01*
X21903408Y13472989D01*
X21893729Y13505102D01*
X21868477Y13664535D01*
X21805218Y13859224D01*
X21743047Y13981240D01*
X21712287Y14041610D01*
X21695293Y14065000D01*
X21591971Y14207214D01*
X21447217Y14351968D01*
X21447212Y14351972D01*
X21351615Y14421427D01*
X21348274Y14425759D01*
X21343297Y14428032D01*
X21327164Y14453135D01*
X21308949Y14476757D01*
X21307696Y14483429D01*
X21305523Y14486810D01*
X21300500Y14521745D01*
X21300500Y14738256D01*
X21320185Y14805295D01*
X21351615Y14838574D01*
X21447215Y14908031D01*
X21447215Y14908032D01*
X21447219Y14908034D01*
X21591966Y15052781D01*
X21591968Y15052785D01*
X21591971Y15052787D01*
X21644732Y15125410D01*
X21712287Y15218390D01*
X21805220Y15400781D01*
X21868477Y15595466D01*
X21900500Y15797648D01*
X21900500Y16002352D01*
X21868477Y16204534D01*
X21805220Y16399219D01*
X21805218Y16399222D01*
X21805218Y16399224D01*
X21771503Y16465393D01*
X21712287Y16581610D01*
X21704556Y16592251D01*
X21591971Y16747214D01*
X21447213Y16891972D01*
X21281614Y17012285D01*
X21274884Y17015714D01*
X21188917Y17059517D01*
X21138123Y17107489D01*
X21121328Y17175310D01*
X21143865Y17241445D01*
X21188917Y17280484D01*
X21281610Y17327713D01*
X21302770Y17343087D01*
X21447213Y17448029D01*
X21447215Y17448032D01*
X21447219Y17448034D01*
X21591966Y17592781D01*
X21591968Y17592785D01*
X21591971Y17592787D01*
X21644732Y17665410D01*
X21712287Y17758390D01*
X21805220Y17940781D01*
X21868477Y18135466D01*
X21900500Y18337648D01*
X21900500Y18542352D01*
X21892257Y18594394D01*
X21868477Y18744535D01*
X21805218Y18939224D01*
X21771503Y19005393D01*
X21712287Y19121610D01*
X21696966Y19142698D01*
X21591971Y19287214D01*
X21447213Y19431972D01*
X21281613Y19552285D01*
X21281612Y19552286D01*
X21281610Y19552287D01*
X21222675Y19582316D01*
X21099223Y19645219D01*
X20904534Y19708478D01*
X20729995Y19736122D01*
X20702352Y19740500D01*
X20497648Y19740500D01*
X20473329Y19736649D01*
X20295465Y19708478D01*
X20100776Y19645219D01*
X19918386Y19552285D01*
X19752786Y19431972D01*
X19608028Y19287214D01*
X19487715Y19121614D01*
X19394781Y18939224D01*
X19331522Y18744535D01*
X19299500Y18542352D01*
X13366685Y18542352D01*
X13352741Y18594394D01*
X13300080Y18685606D01*
X13295686Y18690000D01*
X14279999Y18690000D01*
X14279999Y19039972D01*
X14279998Y19039987D01*
X14269505Y19142698D01*
X14214358Y19309120D01*
X14214356Y19309125D01*
X14122315Y19458346D01*
X13998345Y19582316D01*
X13849124Y19674357D01*
X13849119Y19674359D01*
X13682697Y19729506D01*
X13682690Y19729507D01*
X13579986Y19740000D01*
X13230000Y19740000D01*
X13230000Y18755686D01*
X13225606Y18760080D01*
X13134394Y18812741D01*
X13032661Y18840000D01*
X12927339Y18840000D01*
X12825606Y18812741D01*
X12734394Y18760080D01*
X12730000Y18755686D01*
X12730000Y19740000D01*
X12380028Y19740000D01*
X12380012Y19739999D01*
X12277302Y19729506D01*
X12110880Y19674359D01*
X12110875Y19674357D01*
X11961654Y19582316D01*
X11837684Y19458346D01*
X11745643Y19309125D01*
X11745641Y19309120D01*
X11690494Y19142698D01*
X11690493Y19142691D01*
X11680000Y19039987D01*
X11680000Y18690000D01*
X12664314Y18690000D01*
X12659920Y18685606D01*
X12607259Y18594394D01*
X12580000Y18492661D01*
X12580000Y18387339D01*
X12607259Y18285606D01*
X12659920Y18194394D01*
X12664314Y18190000D01*
X11680001Y18190000D01*
X11680001Y17840014D01*
X11690494Y17737303D01*
X11745641Y17570881D01*
X11745643Y17570876D01*
X11837684Y17421655D01*
X11961654Y17297685D01*
X12071325Y17230039D01*
X12118049Y17178091D01*
X12129272Y17109128D01*
X12101428Y17045046D01*
X12043359Y17006190D01*
X12006228Y17000500D01*
X8921610Y17000500D01*
X8748389Y17000500D01*
X8662844Y16986951D01*
X8577298Y16973402D01*
X8412549Y16919872D01*
X8258211Y16841232D01*
X8178256Y16783141D01*
X8118072Y16739414D01*
X8118070Y16739412D01*
X8118069Y16739412D01*
X6403911Y15025255D01*
X6342588Y14991770D01*
X6335630Y14990463D01*
X6283759Y14982247D01*
X6081585Y14916556D01*
X5892179Y14820049D01*
X5720213Y14695110D01*
X5569890Y14544787D01*
X5444951Y14372821D01*
X5348444Y14183415D01*
X5282753Y13981240D01*
X5249500Y13771287D01*
X5249500Y13558714D01*
X5278594Y13375017D01*
X5282754Y13348757D01*
X5312357Y13257648D01*
X5348444Y13146586D01*
X5444951Y12957180D01*
X5569890Y12785214D01*
X5683430Y12671674D01*
X5716915Y12610351D01*
X5711931Y12540659D01*
X5670059Y12484726D01*
X5639083Y12467811D01*
X5507669Y12418797D01*
X5507664Y12418794D01*
X5392457Y12332549D01*
X5392451Y12332543D01*
X5349515Y12275188D01*
X5293581Y12233318D01*
X5250249Y12225500D01*
X3807204Y12225500D01*
X3777763Y12234145D01*
X3747777Y12240668D01*
X3742761Y12244423D01*
X3740165Y12245185D01*
X3719523Y12261819D01*
X3661819Y12319523D01*
X3628334Y12380846D01*
X3625500Y12407204D01*
X3625500Y20785500D01*
X3645185Y20852539D01*
X3697989Y20898294D01*
X3749500Y20909500D01*
X6475501Y20909500D01*
X6542540Y20889815D01*
X6588295Y20837011D01*
X6599501Y20785500D01*
X6599501Y19899982D01*
X6610000Y19797204D01*
X6610001Y19797201D01*
X6650708Y19674357D01*
X6665186Y19630666D01*
X6757288Y19481344D01*
X6881344Y19357288D01*
X7030666Y19265186D01*
X7197203Y19210001D01*
X7299991Y19199500D01*
X8500008Y19199501D01*
X8602797Y19210001D01*
X8769334Y19265186D01*
X8918656Y19357288D01*
X9042712Y19481344D01*
X9134814Y19630666D01*
X9189999Y19797203D01*
X9200500Y19899991D01*
X9200500Y19975500D01*
X9220185Y20042539D01*
X9272989Y20088294D01*
X9324500Y20099500D01*
X10724110Y20099500D01*
X10724111Y20099500D01*
X10895201Y20126598D01*
X11059945Y20180127D01*
X11214288Y20258768D01*
X11354428Y20360586D01*
X12557023Y21563183D01*
X12618346Y21596667D01*
X12644704Y21599501D01*
X12900002Y21599501D01*
X12900008Y21599501D01*
X13002797Y21610001D01*
X13169334Y21665186D01*
X13318656Y21757288D01*
X13442712Y21881344D01*
X13534814Y22030666D01*
X13589999Y22197203D01*
X13600500Y22299991D01*
X13600500Y22300014D01*
X14400001Y22300014D01*
X14410494Y22197303D01*
X14465641Y22030881D01*
X14465643Y22030876D01*
X14557684Y21881655D01*
X14681654Y21757685D01*
X14830875Y21665644D01*
X14830880Y21665642D01*
X14997302Y21610495D01*
X14997309Y21610494D01*
X15100019Y21600001D01*
X15312499Y21600001D01*
X15812500Y21600001D01*
X16024972Y21600001D01*
X16024986Y21600002D01*
X16127697Y21610495D01*
X16294119Y21665642D01*
X16294124Y21665644D01*
X16443345Y21757685D01*
X16512319Y21826658D01*
X16573642Y21860143D01*
X16643334Y21855159D01*
X16687681Y21826658D01*
X16756654Y21757685D01*
X16905875Y21665644D01*
X16905880Y21665642D01*
X17072302Y21610495D01*
X17072309Y21610494D01*
X17175019Y21600001D01*
X17387499Y21600001D01*
X17887500Y21600001D01*
X18099972Y21600001D01*
X18099986Y21600002D01*
X18202697Y21610495D01*
X18369119Y21665642D01*
X18369124Y21665644D01*
X18518345Y21757685D01*
X18642315Y21881655D01*
X18734356Y22030876D01*
X18734358Y22030881D01*
X18789505Y22197303D01*
X18789506Y22197310D01*
X18799999Y22300014D01*
X18800000Y22300027D01*
X18800000Y22750000D01*
X17887500Y22750000D01*
X17887500Y21600001D01*
X17387499Y21600001D01*
X17387500Y21600002D01*
X17387500Y22750000D01*
X15812500Y22750000D01*
X15812500Y21600001D01*
X15312499Y21600001D01*
X15312500Y21600002D01*
X15312500Y22750000D01*
X14400001Y22750000D01*
X14400001Y22300014D01*
X13600500Y22300014D01*
X13600499Y23003715D01*
X13600499Y23699987D01*
X14400000Y23699987D01*
X14400000Y23250000D01*
X15312500Y23250000D01*
X15812500Y23250000D01*
X17387500Y23250000D01*
X17887500Y23250000D01*
X18799999Y23250000D01*
X18799999Y23699972D01*
X18799998Y23699987D01*
X18789505Y23802698D01*
X18734358Y23969120D01*
X18734356Y23969125D01*
X18642315Y24118346D01*
X18518345Y24242316D01*
X18369124Y24334357D01*
X18369119Y24334359D01*
X18202697Y24389506D01*
X18202690Y24389507D01*
X18099986Y24400000D01*
X17887500Y24400000D01*
X17887500Y23250000D01*
X17387500Y23250000D01*
X17387500Y24400000D01*
X17175029Y24400000D01*
X17175012Y24399999D01*
X17072302Y24389506D01*
X16905880Y24334359D01*
X16905875Y24334357D01*
X16756654Y24242316D01*
X16687681Y24173342D01*
X16626358Y24139857D01*
X16556666Y24144841D01*
X16512319Y24173342D01*
X16443345Y24242316D01*
X16294124Y24334357D01*
X16294119Y24334359D01*
X16127697Y24389506D01*
X16127690Y24389507D01*
X16024986Y24400000D01*
X15812500Y24400000D01*
X15812500Y23250000D01*
X15312500Y23250000D01*
X15312500Y24400000D01*
X15100029Y24400000D01*
X15100012Y24399999D01*
X14997302Y24389506D01*
X14830880Y24334359D01*
X14830875Y24334357D01*
X14681654Y24242316D01*
X14557684Y24118346D01*
X14465643Y23969125D01*
X14465641Y23969120D01*
X14410494Y23802698D01*
X14410493Y23802691D01*
X14400000Y23699987D01*
X13600499Y23699987D01*
X13600499Y23700002D01*
X13600498Y23700019D01*
X13589999Y23802797D01*
X13589998Y23802800D01*
X13544294Y23940727D01*
X13538000Y23979731D01*
X13538000Y24982695D01*
X13557685Y25049734D01*
X13605705Y25093180D01*
X13611110Y25095935D01*
X13771610Y25177713D01*
X13864590Y25245268D01*
X13937213Y25298029D01*
X13937215Y25298032D01*
X13937219Y25298034D01*
X14081966Y25442781D01*
X14081968Y25442785D01*
X14081971Y25442787D01*
X14134732Y25515410D01*
X14202287Y25608390D01*
X14295220Y25790781D01*
X14358477Y25985466D01*
X14390500Y26187648D01*
X14390500Y26392352D01*
X14377407Y26475019D01*
X14358477Y26594535D01*
X14315567Y26726598D01*
X14295220Y26789219D01*
X14295218Y26789222D01*
X14295218Y26789224D01*
X14259782Y26858769D01*
X14202287Y26971610D01*
X14179706Y27002691D01*
X14081971Y27137214D01*
X13937213Y27281972D01*
X13771610Y27402288D01*
X13771608Y27402289D01*
X13678919Y27449517D01*
X13669765Y27458162D01*
X13658099Y27462897D01*
X13644845Y27481698D01*
X13628123Y27497491D01*
X13625096Y27509713D01*
X13617842Y27520003D01*
X13616856Y27542986D01*
X13611328Y27565312D01*
X13615389Y27577230D01*
X13614850Y27589809D01*
X13626446Y27609676D01*
X13633866Y27631447D01*
X13644568Y27640721D01*
X13650073Y27650151D01*
X13678914Y27670483D01*
X13768219Y27715986D01*
X13824512Y27729500D01*
X16762796Y27729500D01*
X16829835Y27709815D01*
X16850477Y27693181D01*
X17583072Y26960586D01*
X17723212Y26858768D01*
X17877555Y26780127D01*
X18042299Y26726598D01*
X18213389Y26699500D01*
X18386611Y26699500D01*
X18709762Y26699500D01*
X18766058Y26685984D01*
X18777554Y26680127D01*
X18942295Y26626599D01*
X18942296Y26626599D01*
X18942299Y26626598D01*
X19113389Y26599500D01*
X19113390Y26599500D01*
X19286607Y26599500D01*
X19286610Y26599500D01*
X19286612Y26599501D01*
X19287458Y26599567D01*
X19287777Y26599500D01*
X19291482Y26599500D01*
X19291482Y26598722D01*
X19355836Y26585208D01*
X19405596Y26536160D01*
X19420940Y26467995D01*
X19419668Y26456553D01*
X19409500Y26392353D01*
X19409500Y26187649D01*
X19441522Y25985466D01*
X19504781Y25790777D01*
X19552895Y25696350D01*
X19597713Y25608390D01*
X19685819Y25487123D01*
X19709298Y25421319D01*
X19709500Y25414239D01*
X19709500Y24076345D01*
X19691039Y24011249D01*
X19665189Y23969341D01*
X19665185Y23969332D01*
X19637349Y23885330D01*
X19610001Y23802797D01*
X19610001Y23802796D01*
X19610000Y23802796D01*
X19599500Y23700017D01*
X19599500Y22299999D01*
X19599501Y22299982D01*
X19610000Y22197204D01*
X19610001Y22197201D01*
X19636814Y22116287D01*
X19665186Y22030666D01*
X19757288Y21881344D01*
X19881344Y21757288D01*
X20030666Y21665186D01*
X20197203Y21610001D01*
X20299991Y21599500D01*
X21225008Y21599501D01*
X21225016Y21599502D01*
X21225019Y21599502D01*
X21281302Y21605252D01*
X21327797Y21610001D01*
X21494334Y21665186D01*
X21643656Y21757288D01*
X21767712Y21881344D01*
X21859814Y22030666D01*
X21914999Y22197203D01*
X21917840Y22225015D01*
X22400000Y22225015D01*
X22410493Y22122311D01*
X22410494Y22122304D01*
X22465641Y21955882D01*
X22465643Y21955877D01*
X22557684Y21806656D01*
X22681655Y21682685D01*
X22830876Y21590644D01*
X22830881Y21590642D01*
X22997303Y21535495D01*
X22997310Y21535494D01*
X23100014Y21525001D01*
X23100027Y21525000D01*
X23362500Y21525000D01*
X23862500Y21525000D01*
X24124973Y21525000D01*
X24124985Y21525001D01*
X24227689Y21535494D01*
X24227696Y21535495D01*
X24394118Y21590642D01*
X24394123Y21590644D01*
X24543344Y21682685D01*
X24667315Y21806656D01*
X24759356Y21955877D01*
X24759358Y21955882D01*
X24814505Y22122304D01*
X24814506Y22122311D01*
X24824999Y22225015D01*
X24825000Y22225028D01*
X24825000Y22650000D01*
X23862500Y22650000D01*
X23862500Y21525000D01*
X23362500Y21525000D01*
X23362500Y22650000D01*
X22400000Y22650000D01*
X22400000Y22225015D01*
X21917840Y22225015D01*
X21925500Y22299991D01*
X21925499Y23003715D01*
X21925499Y23700002D01*
X21925498Y23700019D01*
X21914999Y23802797D01*
X21914998Y23802800D01*
X21901306Y23844119D01*
X21859814Y23969334D01*
X21767712Y24118656D01*
X21746819Y24139549D01*
X21713334Y24200872D01*
X21710500Y24227230D01*
X21710500Y25414239D01*
X21730185Y25481278D01*
X21734165Y25487101D01*
X21822287Y25608390D01*
X21915220Y25790781D01*
X21948630Y25893608D01*
X21950182Y25895878D01*
X21950379Y25898623D01*
X21969790Y25924553D01*
X21988068Y25951283D01*
X21990602Y25952355D01*
X21992251Y25954556D01*
X22022585Y25965871D01*
X22052426Y25978481D01*
X22055137Y25978012D01*
X22057715Y25978973D01*
X22089359Y25972090D01*
X22121273Y25966566D01*
X22124122Y25964527D01*
X22125988Y25964121D01*
X22154239Y25942972D01*
X22197212Y25900000D01*
X22313181Y25784031D01*
X22346666Y25722708D01*
X22349500Y25696350D01*
X22349500Y25124999D01*
X22349501Y25124981D01*
X22360000Y25022204D01*
X22360001Y25022201D01*
X22383894Y24950099D01*
X22415186Y24855666D01*
X22507288Y24706344D01*
X22631344Y24582288D01*
X22780666Y24490186D01*
X22874302Y24459158D01*
X22931746Y24419387D01*
X22958569Y24354871D01*
X22946254Y24286095D01*
X22898711Y24234895D01*
X22874303Y24223748D01*
X22830885Y24209360D01*
X22830876Y24209357D01*
X22681655Y24117316D01*
X22557684Y23993345D01*
X22465643Y23844124D01*
X22465641Y23844119D01*
X22410494Y23677697D01*
X22410493Y23677690D01*
X22400000Y23574986D01*
X22400000Y23150000D01*
X24825000Y23150000D01*
X24825000Y23574977D01*
X24824999Y23574981D01*
X24824995Y23575016D01*
X25374500Y23575016D01*
X25374500Y22224985D01*
X25385000Y22122205D01*
X25385001Y22122203D01*
X25412593Y22038935D01*
X25440186Y21955665D01*
X25440187Y21955663D01*
X25532286Y21806349D01*
X25532289Y21806345D01*
X25656344Y21682290D01*
X25656348Y21682287D01*
X25805662Y21590188D01*
X25805664Y21590187D01*
X25805666Y21590186D01*
X25972203Y21535001D01*
X26074992Y21524500D01*
X26074997Y21524500D01*
X27100003Y21524500D01*
X27100008Y21524500D01*
X27202797Y21535001D01*
X27369334Y21590186D01*
X27518655Y21682289D01*
X27642711Y21806345D01*
X27734814Y21955666D01*
X27789999Y22122203D01*
X27800500Y22224992D01*
X27800500Y23575008D01*
X27789999Y23677797D01*
X27734814Y23844334D01*
X27657844Y23969120D01*
X27642713Y23993652D01*
X27642710Y23993656D01*
X27636819Y23999547D01*
X27603334Y24060870D01*
X27600500Y24087228D01*
X27600500Y24683805D01*
X27618960Y24748901D01*
X27684814Y24855666D01*
X27739999Y25022203D01*
X27750500Y25124991D01*
X27750499Y26475008D01*
X27739999Y26577797D01*
X27684814Y26744334D01*
X27592712Y26893656D01*
X27468656Y27017712D01*
X27319334Y27109814D01*
X27152797Y27164999D01*
X27152795Y27165000D01*
X27050010Y27175500D01*
X26149998Y27175500D01*
X26149980Y27175499D01*
X26047203Y27165000D01*
X26047200Y27164999D01*
X25880668Y27109815D01*
X25880663Y27109813D01*
X25731342Y27017711D01*
X25607289Y26893658D01*
X25515187Y26744337D01*
X25515186Y26744334D01*
X25460001Y26577797D01*
X25460001Y26577796D01*
X25460000Y26577796D01*
X25449500Y26475017D01*
X25449500Y25124999D01*
X25449501Y25124982D01*
X25460000Y25022204D01*
X25460001Y25022201D01*
X25483894Y24950099D01*
X25515186Y24855666D01*
X25581039Y24748901D01*
X25599500Y24683805D01*
X25599500Y24112228D01*
X25579815Y24045189D01*
X25563181Y24024547D01*
X25532289Y23993656D01*
X25532286Y23993652D01*
X25440187Y23844338D01*
X25440186Y23844336D01*
X25385001Y23677797D01*
X25385000Y23677796D01*
X25374500Y23575016D01*
X24824995Y23575016D01*
X24814506Y23677690D01*
X24814505Y23677697D01*
X24759358Y23844119D01*
X24759356Y23844124D01*
X24667315Y23993345D01*
X24543344Y24117316D01*
X24394123Y24209357D01*
X24394118Y24209359D01*
X24236166Y24261699D01*
X24178721Y24301472D01*
X24151898Y24365988D01*
X24164213Y24434763D01*
X24211756Y24485963D01*
X24216879Y24488673D01*
X24219329Y24490185D01*
X24219334Y24490186D01*
X24368656Y24582288D01*
X24492712Y24706344D01*
X24584814Y24855666D01*
X24639999Y25022203D01*
X24650500Y25124991D01*
X24650499Y26475008D01*
X24639999Y26577797D01*
X24584814Y26744334D01*
X24492712Y26893656D01*
X24368656Y27017712D01*
X24219334Y27109814D01*
X24074534Y27157796D01*
X24017091Y27197568D01*
X23990268Y27262083D01*
X24002583Y27330859D01*
X24050126Y27382059D01*
X24113539Y27399501D01*
X24475008Y27399501D01*
X24577797Y27410001D01*
X24744334Y27465186D01*
X24893656Y27557288D01*
X25017712Y27681344D01*
X25023420Y27690598D01*
X25075368Y27737322D01*
X25128958Y27749500D01*
X28771158Y27749500D01*
X28787769Y27749500D01*
X28854808Y27729815D01*
X28875450Y27713182D01*
X28981344Y27607288D01*
X29130666Y27515186D01*
X29297203Y27460001D01*
X29399991Y27449500D01*
X30600008Y27449501D01*
X30702797Y27460001D01*
X30869334Y27515186D01*
X31018656Y27607288D01*
X31142712Y27731344D01*
X31234814Y27880666D01*
X31289999Y28047203D01*
X31300500Y28149991D01*
X31300499Y31250008D01*
X31299312Y31261624D01*
X31289999Y31352797D01*
X31289998Y31352800D01*
X31250382Y31472352D01*
X31234814Y31519334D01*
X31142712Y31668656D01*
X31018656Y31792712D01*
X30869334Y31884814D01*
X30702797Y31939999D01*
X30702795Y31940000D01*
X30600010Y31950500D01*
X29399998Y31950500D01*
X29399981Y31950499D01*
X29297203Y31940000D01*
X29297200Y31939999D01*
X29130668Y31884815D01*
X29130663Y31884813D01*
X28981342Y31792711D01*
X28857289Y31668658D01*
X28765187Y31519337D01*
X28765185Y31519332D01*
X28746633Y31463344D01*
X28710001Y31352797D01*
X28710001Y31352796D01*
X28710000Y31352796D01*
X28699500Y31250017D01*
X28699500Y29582941D01*
X28690854Y29553498D01*
X28684332Y29523515D01*
X28680577Y29518500D01*
X28679815Y29515902D01*
X28663185Y29495265D01*
X28554739Y29386818D01*
X28493419Y29353334D01*
X28467060Y29350500D01*
X25128958Y29350500D01*
X25061919Y29370185D01*
X25023420Y29409402D01*
X25017712Y29418656D01*
X24893657Y29542711D01*
X24893656Y29542712D01*
X24744334Y29634814D01*
X24577797Y29689999D01*
X24577795Y29690000D01*
X24475010Y29700500D01*
X23124998Y29700500D01*
X23124981Y29700499D01*
X23022203Y29690000D01*
X23022200Y29689999D01*
X22894316Y29647622D01*
X22861640Y29636794D01*
X22822638Y29630500D01*
X21799033Y29630500D01*
X21731994Y29650185D01*
X21704748Y29673962D01*
X21701964Y29677221D01*
X21557213Y29821972D01*
X21391614Y29942285D01*
X21385006Y29945652D01*
X21298917Y29989517D01*
X21248123Y30037489D01*
X21231328Y30105310D01*
X21253865Y30171445D01*
X21298917Y30210484D01*
X21391610Y30257713D01*
X21412770Y30273087D01*
X21557213Y30378029D01*
X21557215Y30378032D01*
X21557219Y30378034D01*
X21701966Y30522781D01*
X21701972Y30522790D01*
X21704748Y30526038D01*
X21763258Y30564227D01*
X21799033Y30569500D01*
X22822638Y30569500D01*
X22861640Y30563207D01*
X23022203Y30510001D01*
X23124991Y30499500D01*
X24475008Y30499501D01*
X24577797Y30510001D01*
X24744334Y30565186D01*
X24893656Y30657288D01*
X25017712Y30781344D01*
X25109814Y30930666D01*
X25164999Y31097203D01*
X25175500Y31199991D01*
X25175499Y32100008D01*
X25171440Y32139739D01*
X25164999Y32202797D01*
X25164998Y32202800D01*
X25147536Y32255496D01*
X25109814Y32369334D01*
X25017712Y32518656D01*
X24893656Y32642712D01*
X24744334Y32734814D01*
X24577797Y32789999D01*
X24577795Y32790000D01*
X24475010Y32800500D01*
X23124998Y32800500D01*
X23124981Y32800499D01*
X23022203Y32790000D01*
X23022200Y32789999D01*
X22855668Y32734815D01*
X22855663Y32734813D01*
X22706342Y32642711D01*
X22582289Y32518658D01*
X22490187Y32369337D01*
X22490185Y32369332D01*
X22452464Y32255496D01*
X22412691Y32198051D01*
X22348175Y32171228D01*
X22334758Y32170500D01*
X21799033Y32170500D01*
X21731994Y32190185D01*
X21704748Y32213962D01*
X21701964Y32217221D01*
X21557213Y32361972D01*
X21391610Y32482288D01*
X21391608Y32482289D01*
X21298919Y32529517D01*
X21289765Y32538162D01*
X21278099Y32542897D01*
X21264845Y32561698D01*
X21248123Y32577491D01*
X21245096Y32589713D01*
X21237842Y32600003D01*
X21236856Y32622986D01*
X21231328Y32645312D01*
X21235389Y32657230D01*
X21234850Y32669809D01*
X21246446Y32689676D01*
X21253866Y32711447D01*
X21264568Y32720721D01*
X21270073Y32730151D01*
X21298914Y32750483D01*
X21388219Y32795986D01*
X21444512Y32809500D01*
X22196610Y32809500D01*
X22196611Y32809500D01*
X22367701Y32836598D01*
X22532445Y32890127D01*
X22686788Y32968768D01*
X22826928Y33070586D01*
X23306356Y33550014D01*
X28700001Y33550014D01*
X28710494Y33447303D01*
X28765641Y33280881D01*
X28765643Y33280876D01*
X28857684Y33131655D01*
X28981654Y33007685D01*
X29130875Y32915644D01*
X29130880Y32915642D01*
X29297302Y32860495D01*
X29297309Y32860494D01*
X29400019Y32850001D01*
X29749999Y32850001D01*
X30250000Y32850001D01*
X30599972Y32850001D01*
X30599986Y32850002D01*
X30702697Y32860495D01*
X30869119Y32915642D01*
X30869124Y32915644D01*
X31018345Y33007685D01*
X31142315Y33131655D01*
X31234356Y33280876D01*
X31234358Y33280881D01*
X31289505Y33447303D01*
X31289506Y33447310D01*
X31299999Y33550014D01*
X31300000Y33550027D01*
X31300000Y34850000D01*
X30250000Y34850000D01*
X30250000Y32850001D01*
X29749999Y32850001D01*
X29750000Y32850002D01*
X29750000Y34850000D01*
X28700001Y34850000D01*
X28700001Y33550014D01*
X23306356Y33550014D01*
X23839414Y34083072D01*
X23941232Y34223212D01*
X23998979Y34336547D01*
X24019873Y34377554D01*
X24073402Y34542299D01*
X24100500Y34713389D01*
X24100500Y34886610D01*
X24100500Y34886617D01*
X24100499Y34886618D01*
X24092883Y34934699D01*
X24073402Y35057701D01*
X24073401Y35057705D01*
X24073401Y35057706D01*
X24056569Y35109509D01*
X24050500Y35147827D01*
X24050500Y35882995D01*
X24056794Y35921999D01*
X24089999Y36022203D01*
X24100500Y36124991D01*
X24100499Y36649987D01*
X28700000Y36649987D01*
X28700000Y35350000D01*
X29750000Y35350000D01*
X30250000Y35350000D01*
X31299999Y35350000D01*
X31299999Y36649972D01*
X31299998Y36649987D01*
X31289505Y36752698D01*
X31234358Y36919120D01*
X31234356Y36919125D01*
X31142315Y37068346D01*
X31018345Y37192316D01*
X30869124Y37284357D01*
X30869119Y37284359D01*
X30702697Y37339506D01*
X30702690Y37339507D01*
X30599986Y37350000D01*
X30250000Y37350000D01*
X30250000Y35350000D01*
X29750000Y35350000D01*
X29750000Y37350000D01*
X29400028Y37350000D01*
X29400012Y37349999D01*
X29297302Y37339506D01*
X29130880Y37284359D01*
X29130875Y37284357D01*
X28981654Y37192316D01*
X28857684Y37068346D01*
X28765643Y36919125D01*
X28765641Y36919120D01*
X28710494Y36752698D01*
X28710493Y36752691D01*
X28700000Y36649987D01*
X24100499Y36649987D01*
X24100499Y36893797D01*
X24100499Y37475002D01*
X24100498Y37475019D01*
X24089999Y37577797D01*
X24089998Y37577800D01*
X24034814Y37744334D01*
X23942712Y37893656D01*
X23818656Y38017712D01*
X23669334Y38109814D01*
X23502797Y38164999D01*
X23502795Y38165000D01*
X23400016Y38175500D01*
X23400009Y38175500D01*
X23182204Y38175500D01*
X23115165Y38195185D01*
X23094523Y38211819D01*
X21066930Y40239412D01*
X21066928Y40239414D01*
X20926788Y40341232D01*
X20772445Y40419873D01*
X20607701Y40473402D01*
X20607699Y40473403D01*
X20607698Y40473403D01*
X20476271Y40494219D01*
X20436611Y40500500D01*
X7386611Y40500500D01*
X7213389Y40500500D01*
X7127844Y40486951D01*
X7042298Y40473402D01*
X6877549Y40419872D01*
X6723211Y40341232D01*
X6643256Y40283141D01*
X6583072Y40239414D01*
X6583070Y40239412D01*
X6583069Y40239412D01*
X4160588Y37816931D01*
X4160588Y37816930D01*
X4160586Y37816928D01*
X4116859Y37756744D01*
X4058768Y37676789D01*
X3980128Y37522448D01*
X3926597Y37357698D01*
X3899500Y37186611D01*
X3899500Y25879663D01*
X3879815Y25812624D01*
X3827011Y25766869D01*
X3757853Y25756925D01*
X3701189Y25780396D01*
X3617089Y25843353D01*
X3617086Y25843355D01*
X3482379Y25893597D01*
X3482372Y25893599D01*
X3422844Y25900000D01*
X2775000Y25900000D01*
X2775000Y24983012D01*
X2717993Y25015925D01*
X2590826Y25050000D01*
X2459174Y25050000D01*
X2332007Y25015925D01*
X2275000Y24983012D01*
X2275000Y25900000D01*
X1627155Y25900000D01*
X1567627Y25893599D01*
X1567620Y25893597D01*
X1432913Y25843355D01*
X1432906Y25843351D01*
X1317812Y25757191D01*
X1317809Y25757188D01*
X1231649Y25642094D01*
X1231645Y25642087D01*
X1181403Y25507380D01*
X1181401Y25507373D01*
X1175000Y25447845D01*
X1175000Y24800000D01*
X2091988Y24800000D01*
X2059075Y24742993D01*
X2025000Y24615826D01*
X2025000Y24484174D01*
X2059075Y24357007D01*
X2091988Y24300000D01*
X1175000Y24300000D01*
X1175000Y23652156D01*
X1181401Y23592628D01*
X1181403Y23592621D01*
X1231645Y23457914D01*
X1231649Y23457907D01*
X1317809Y23342813D01*
X1317812Y23342810D01*
X1432906Y23256650D01*
X1432913Y23256646D01*
X1564470Y23207578D01*
X1620404Y23165707D01*
X1644821Y23100242D01*
X1629969Y23031969D01*
X1608819Y23003715D01*
X1494889Y22889785D01*
X1369951Y22717821D01*
X1273444Y22528415D01*
X1207753Y22326240D01*
X1174500Y22116287D01*
X500500Y22116287D01*
X500500Y40775500D01*
X520185Y40842539D01*
X572989Y40888294D01*
X624500Y40899500D01*
X33775500Y40899500D01*
X33842539Y40879815D01*
G37*
%TD.AperFunction*%
%TD*%
M02*
