%TF.GenerationSoftware,KiCad,Pcbnew,9.0.5*%
%TF.CreationDate,2025-11-22T01:39:54+01:00*%
%TF.ProjectId,AstableMonostable_NE555,41737461-626c-4654-9d6f-6e6f73746162,rev?*%
%TF.SameCoordinates,PX57a4860PY69925e0*%
%TF.FileFunction,Copper,L2,Bot*%
%TF.FilePolarity,Positive*%
%FSLAX46Y46*%
G04 Gerber Fmt 4.6, Leading zero omitted, Abs format (unit mm)*
G04 Created by KiCad (PCBNEW 9.0.5) date 2025-11-22 01:39:54*
%MOMM*%
%LPD*%
G01*
G04 APERTURE LIST*
G04 Aperture macros list*
%AMRoundRect*
0 Rectangle with rounded corners*
0 $1 Rounding radius*
0 $2 $3 $4 $5 $6 $7 $8 $9 X,Y pos of 4 corners*
0 Add a 4 corners polygon primitive as box body*
4,1,4,$2,$3,$4,$5,$6,$7,$8,$9,$2,$3,0*
0 Add four circle primitives for the rounded corners*
1,1,$1+$1,$2,$3*
1,1,$1+$1,$4,$5*
1,1,$1+$1,$6,$7*
1,1,$1+$1,$8,$9*
0 Add four rect primitives between the rounded corners*
20,1,$1+$1,$2,$3,$4,$5,0*
20,1,$1+$1,$4,$5,$6,$7,0*
20,1,$1+$1,$6,$7,$8,$9,0*
20,1,$1+$1,$8,$9,$2,$3,0*%
G04 Aperture macros list end*
%TA.AperFunction,ComponentPad*%
%ADD10R,1.700000X1.700000*%
%TD*%
%TA.AperFunction,ComponentPad*%
%ADD11O,1.700000X1.700000*%
%TD*%
%TA.AperFunction,ComponentPad*%
%ADD12RoundRect,0.250000X-0.550000X-0.550000X0.550000X-0.550000X0.550000X0.550000X-0.550000X0.550000X0*%
%TD*%
%TA.AperFunction,ComponentPad*%
%ADD13C,1.600000*%
%TD*%
%TA.AperFunction,ViaPad*%
%ADD14C,0.600000*%
%TD*%
%TA.AperFunction,Conductor*%
%ADD15C,1.200000*%
%TD*%
G04 APERTURE END LIST*
D10*
%TO.P,J2,1,Pin_1*%
%TO.N,+5V*%
X6600000Y11125000D03*
D11*
%TO.P,J2,2,Pin_2*%
%TO.N,Net-(J2-Pin_2)*%
X6600000Y13665000D03*
%TD*%
D12*
%TO.P,U2,1,GND*%
%TO.N,GND*%
X12980000Y18440000D03*
D13*
%TO.P,U2,2,TR*%
%TO.N,Net-(J2-Pin_2)*%
X12980000Y15900000D03*
%TO.P,U2,3,Q*%
%TO.N,Net-(U2-Q)*%
X12980000Y13360000D03*
%TO.P,U2,4,R*%
%TO.N,+5V*%
X12980000Y10820000D03*
%TO.P,U2,5,CV*%
%TO.N,Net-(U2-CV)*%
X20600000Y10820000D03*
%TO.P,U2,6,THR*%
%TO.N,Net-(U2-DIS)*%
X20600000Y13360000D03*
%TO.P,U2,7,DIS*%
X20600000Y15900000D03*
%TO.P,U2,8,VCC*%
%TO.N,+5V*%
X20600000Y18440000D03*
%TD*%
D12*
%TO.P,U1,1,GND*%
%TO.N,GND*%
X13090000Y33910000D03*
D13*
%TO.P,U1,2,TR*%
%TO.N,Net-(U1-THR)*%
X13090000Y31370000D03*
%TO.P,U1,3,Q*%
%TO.N,Net-(U1-Q)*%
X13090000Y28830000D03*
%TO.P,U1,4,R*%
%TO.N,+5V*%
X13090000Y26290000D03*
%TO.P,U1,5,CV*%
%TO.N,Net-(U1-CV)*%
X20710000Y26290000D03*
%TO.P,U1,6,THR*%
%TO.N,Net-(U1-THR)*%
X20710000Y28830000D03*
%TO.P,U1,7,DIS*%
%TO.N,Net-(U1-DIS)*%
X20710000Y31370000D03*
%TO.P,U1,8,VCC*%
%TO.N,+5V*%
X20710000Y33910000D03*
%TD*%
D10*
%TO.P,J1,1,Pin_1*%
%TO.N,GND*%
X2525000Y24550000D03*
D11*
%TO.P,J1,2,Pin_2*%
%TO.N,+5V*%
X2525000Y22010000D03*
%TD*%
D14*
%TO.N,GND*%
X15500000Y4800000D03*
X27100000Y8400000D03*
X7900000Y28100000D03*
X30000000Y37800000D03*
X32550000Y16550000D03*
X16600000Y21000000D03*
%TD*%
D15*
%TO.N,+5V*%
X12980000Y10820000D02*
X20600000Y18440000D01*
%TD*%
%TA.AperFunction,Conductor*%
%TO.N,GND*%
G36*
X33842539Y40879815D02*
G01*
X33888294Y40827011D01*
X33899500Y40775500D01*
X33899500Y624500D01*
X33879815Y557461D01*
X33827011Y511706D01*
X33775500Y500500D01*
X624500Y500500D01*
X557461Y520185D01*
X511706Y572989D01*
X500500Y624500D01*
X500500Y13771287D01*
X5249500Y13771287D01*
X5249500Y13558713D01*
X5282754Y13348757D01*
X5312357Y13257648D01*
X5348444Y13146586D01*
X5444951Y12957180D01*
X5569890Y12785214D01*
X5683430Y12671674D01*
X5716915Y12610351D01*
X5711931Y12540659D01*
X5670059Y12484726D01*
X5639083Y12467811D01*
X5507669Y12418797D01*
X5507664Y12418794D01*
X5392455Y12332548D01*
X5392452Y12332545D01*
X5306206Y12217336D01*
X5306202Y12217329D01*
X5255908Y12082483D01*
X5249996Y12027489D01*
X5249501Y12022877D01*
X5249500Y12022865D01*
X5249500Y10227130D01*
X5249501Y10227124D01*
X5255908Y10167517D01*
X5306202Y10032672D01*
X5306206Y10032665D01*
X5392452Y9917456D01*
X5392455Y9917453D01*
X5507664Y9831207D01*
X5507671Y9831203D01*
X5642517Y9780909D01*
X5642516Y9780909D01*
X5649444Y9780165D01*
X5702127Y9774500D01*
X7497872Y9774501D01*
X7557483Y9780909D01*
X7692331Y9831204D01*
X7807546Y9917454D01*
X7893796Y10032669D01*
X7944091Y10167517D01*
X7950500Y10227127D01*
X7950499Y12022872D01*
X7944091Y12082483D01*
X7943268Y12084689D01*
X7893797Y12217329D01*
X7893793Y12217336D01*
X7807547Y12332545D01*
X7807544Y12332548D01*
X7692335Y12418794D01*
X7692328Y12418798D01*
X7560917Y12467811D01*
X7504983Y12509682D01*
X7480566Y12575147D01*
X7495418Y12643420D01*
X7516563Y12671668D01*
X7630104Y12785208D01*
X7755051Y12957184D01*
X7851557Y13146588D01*
X7917246Y13348757D01*
X7950500Y13558713D01*
X7950500Y13771287D01*
X7917246Y13981243D01*
X7851557Y14183412D01*
X7755051Y14372816D01*
X7755049Y14372819D01*
X7755048Y14372821D01*
X7630109Y14544787D01*
X7479786Y14695110D01*
X7307820Y14820049D01*
X7118414Y14916556D01*
X7118413Y14916557D01*
X7118412Y14916557D01*
X6916243Y14982246D01*
X6916241Y14982247D01*
X6916240Y14982247D01*
X6754957Y15007792D01*
X6706287Y15015500D01*
X6493713Y15015500D01*
X6445042Y15007792D01*
X6283760Y14982247D01*
X6081585Y14916556D01*
X5892179Y14820049D01*
X5720213Y14695110D01*
X5569890Y14544787D01*
X5444951Y14372821D01*
X5348444Y14183415D01*
X5282753Y13981240D01*
X5249500Y13771287D01*
X500500Y13771287D01*
X500500Y16002352D01*
X11679500Y16002352D01*
X11679500Y15797649D01*
X11711522Y15595466D01*
X11774781Y15400777D01*
X11867715Y15218387D01*
X11988028Y15052787D01*
X12132786Y14908029D01*
X12253880Y14820051D01*
X12298390Y14787713D01*
X12389840Y14741117D01*
X12391080Y14740485D01*
X12441876Y14692510D01*
X12458671Y14624689D01*
X12436134Y14558554D01*
X12391080Y14519515D01*
X12298386Y14472285D01*
X12132786Y14351972D01*
X11988028Y14207214D01*
X11867715Y14041614D01*
X11774781Y13859224D01*
X11711522Y13664535D01*
X11679500Y13462352D01*
X11679500Y13257649D01*
X11711522Y13055466D01*
X11774781Y12860777D01*
X11867715Y12678387D01*
X11988028Y12512787D01*
X12132786Y12368029D01*
X12287749Y12255444D01*
X12298390Y12247713D01*
X12389840Y12201117D01*
X12391080Y12200485D01*
X12441876Y12152510D01*
X12458671Y12084689D01*
X12436134Y12018554D01*
X12391080Y11979515D01*
X12298386Y11932285D01*
X12132786Y11811972D01*
X11988028Y11667214D01*
X11867715Y11501614D01*
X11774781Y11319224D01*
X11711522Y11124535D01*
X11679500Y10922352D01*
X11679500Y10717649D01*
X11711522Y10515466D01*
X11774781Y10320777D01*
X11867715Y10138387D01*
X11988028Y9972787D01*
X12132786Y9828029D01*
X12287749Y9715444D01*
X12298390Y9707713D01*
X12414607Y9648497D01*
X12480776Y9614782D01*
X12480778Y9614782D01*
X12480781Y9614780D01*
X12585137Y9580873D01*
X12675465Y9551523D01*
X12776557Y9535512D01*
X12877648Y9519500D01*
X12877649Y9519500D01*
X13082351Y9519500D01*
X13082352Y9519500D01*
X13284534Y9551523D01*
X13479219Y9614780D01*
X13661610Y9707713D01*
X13754590Y9775268D01*
X13827213Y9828029D01*
X13827215Y9828032D01*
X13827219Y9828034D01*
X13971966Y9972781D01*
X13971968Y9972785D01*
X13971971Y9972787D01*
X14024732Y10045410D01*
X14092287Y10138390D01*
X14185220Y10320781D01*
X14247301Y10511850D01*
X14277549Y10561209D01*
X19183607Y15467267D01*
X19244928Y15500750D01*
X19314620Y15495766D01*
X19370553Y15453894D01*
X19389216Y15417904D01*
X19394779Y15400781D01*
X19487715Y15218387D01*
X19608028Y15052787D01*
X19752786Y14908029D01*
X19873880Y14820051D01*
X19918390Y14787713D01*
X20009840Y14741117D01*
X20011080Y14740485D01*
X20061876Y14692510D01*
X20078671Y14624689D01*
X20056134Y14558554D01*
X20011080Y14519515D01*
X19918386Y14472285D01*
X19752786Y14351972D01*
X19608028Y14207214D01*
X19487715Y14041614D01*
X19394781Y13859224D01*
X19331522Y13664535D01*
X19299500Y13462352D01*
X19299500Y13257649D01*
X19331522Y13055466D01*
X19394781Y12860777D01*
X19487715Y12678387D01*
X19608028Y12512787D01*
X19752786Y12368029D01*
X19907749Y12255444D01*
X19918390Y12247713D01*
X20009840Y12201117D01*
X20011080Y12200485D01*
X20061876Y12152510D01*
X20078671Y12084689D01*
X20056134Y12018554D01*
X20011080Y11979515D01*
X19918386Y11932285D01*
X19752786Y11811972D01*
X19608028Y11667214D01*
X19487715Y11501614D01*
X19394781Y11319224D01*
X19331522Y11124535D01*
X19299500Y10922352D01*
X19299500Y10717649D01*
X19331522Y10515466D01*
X19394781Y10320777D01*
X19487715Y10138387D01*
X19608028Y9972787D01*
X19752786Y9828029D01*
X19907749Y9715444D01*
X19918390Y9707713D01*
X20034607Y9648497D01*
X20100776Y9614782D01*
X20100778Y9614782D01*
X20100781Y9614780D01*
X20205137Y9580873D01*
X20295465Y9551523D01*
X20396557Y9535512D01*
X20497648Y9519500D01*
X20497649Y9519500D01*
X20702351Y9519500D01*
X20702352Y9519500D01*
X20904534Y9551523D01*
X21099219Y9614780D01*
X21281610Y9707713D01*
X21374590Y9775268D01*
X21447213Y9828029D01*
X21447215Y9828032D01*
X21447219Y9828034D01*
X21591966Y9972781D01*
X21591968Y9972785D01*
X21591971Y9972787D01*
X21644732Y10045410D01*
X21712287Y10138390D01*
X21805220Y10320781D01*
X21868477Y10515466D01*
X21900500Y10717648D01*
X21900500Y10922352D01*
X21868477Y11124534D01*
X21805220Y11319219D01*
X21805218Y11319222D01*
X21805218Y11319224D01*
X21771503Y11385393D01*
X21712287Y11501610D01*
X21704556Y11512251D01*
X21591971Y11667214D01*
X21447213Y11811972D01*
X21281614Y11932285D01*
X21275006Y11935652D01*
X21188917Y11979517D01*
X21138123Y12027489D01*
X21121328Y12095310D01*
X21143865Y12161445D01*
X21188917Y12200484D01*
X21281610Y12247713D01*
X21302770Y12263087D01*
X21447213Y12368029D01*
X21447215Y12368032D01*
X21447219Y12368034D01*
X21591966Y12512781D01*
X21591968Y12512785D01*
X21591971Y12512787D01*
X21686880Y12643420D01*
X21712287Y12678390D01*
X21805220Y12860781D01*
X21868477Y13055466D01*
X21900500Y13257648D01*
X21900500Y13462352D01*
X21868477Y13664534D01*
X21805220Y13859219D01*
X21805218Y13859222D01*
X21805218Y13859224D01*
X21743047Y13981240D01*
X21712287Y14041610D01*
X21704556Y14052251D01*
X21591971Y14207214D01*
X21447213Y14351972D01*
X21281614Y14472285D01*
X21275006Y14475652D01*
X21188917Y14519517D01*
X21138123Y14567489D01*
X21121328Y14635310D01*
X21143865Y14701445D01*
X21188917Y14740484D01*
X21281610Y14787713D01*
X21326120Y14820051D01*
X21447213Y14908029D01*
X21447215Y14908032D01*
X21447219Y14908034D01*
X21591966Y15052781D01*
X21591968Y15052785D01*
X21591971Y15052787D01*
X21644732Y15125410D01*
X21712287Y15218390D01*
X21805220Y15400781D01*
X21868477Y15595466D01*
X21900500Y15797648D01*
X21900500Y16002352D01*
X21868477Y16204534D01*
X21805220Y16399219D01*
X21805218Y16399222D01*
X21805218Y16399224D01*
X21771503Y16465393D01*
X21712287Y16581610D01*
X21704556Y16592251D01*
X21591971Y16747214D01*
X21447213Y16891972D01*
X21281614Y17012285D01*
X21274884Y17015714D01*
X21188917Y17059517D01*
X21138123Y17107489D01*
X21121328Y17175310D01*
X21143865Y17241445D01*
X21188917Y17280484D01*
X21281610Y17327713D01*
X21302770Y17343087D01*
X21447213Y17448029D01*
X21447215Y17448032D01*
X21447219Y17448034D01*
X21591966Y17592781D01*
X21591968Y17592785D01*
X21591971Y17592787D01*
X21644732Y17665410D01*
X21712287Y17758390D01*
X21805220Y17940781D01*
X21868477Y18135466D01*
X21900500Y18337648D01*
X21900500Y18542352D01*
X21892257Y18594394D01*
X21868477Y18744535D01*
X21805218Y18939224D01*
X21771503Y19005393D01*
X21712287Y19121610D01*
X21696966Y19142698D01*
X21591971Y19287214D01*
X21447213Y19431972D01*
X21281613Y19552285D01*
X21281612Y19552286D01*
X21281610Y19552287D01*
X21222675Y19582316D01*
X21099223Y19645219D01*
X20904534Y19708478D01*
X20729995Y19736122D01*
X20702352Y19740500D01*
X20497648Y19740500D01*
X20473329Y19736649D01*
X20295465Y19708478D01*
X20100776Y19645219D01*
X19918386Y19552285D01*
X19752786Y19431972D01*
X19608028Y19287214D01*
X19487715Y19121614D01*
X19394781Y18939224D01*
X19332699Y18748155D01*
X19302449Y18698793D01*
X14396394Y13792738D01*
X14335071Y13759253D01*
X14265379Y13764237D01*
X14209446Y13806109D01*
X14190783Y13842099D01*
X14185220Y13859220D01*
X14123047Y13981240D01*
X14092287Y14041610D01*
X14084556Y14052251D01*
X13971971Y14207214D01*
X13827213Y14351972D01*
X13661614Y14472285D01*
X13655006Y14475652D01*
X13568917Y14519517D01*
X13518123Y14567489D01*
X13501328Y14635310D01*
X13523865Y14701445D01*
X13568917Y14740484D01*
X13661610Y14787713D01*
X13706120Y14820051D01*
X13827213Y14908029D01*
X13827215Y14908032D01*
X13827219Y14908034D01*
X13971966Y15052781D01*
X13971968Y15052785D01*
X13971971Y15052787D01*
X14024732Y15125410D01*
X14092287Y15218390D01*
X14185220Y15400781D01*
X14248477Y15595466D01*
X14280500Y15797648D01*
X14280500Y16002352D01*
X14248477Y16204534D01*
X14185220Y16399219D01*
X14185218Y16399222D01*
X14185218Y16399224D01*
X14151503Y16465393D01*
X14092287Y16581610D01*
X14084556Y16592251D01*
X13971971Y16747214D01*
X13827217Y16891968D01*
X13827212Y16891972D01*
X13733051Y16960384D01*
X13690385Y17015714D01*
X13684406Y17085327D01*
X13717012Y17147122D01*
X13766933Y17178408D01*
X13849117Y17205641D01*
X13849124Y17205644D01*
X13998345Y17297685D01*
X14122315Y17421655D01*
X14214356Y17570876D01*
X14214358Y17570881D01*
X14269505Y17737303D01*
X14269506Y17737310D01*
X14279999Y17840014D01*
X14280000Y17840027D01*
X14280000Y18190000D01*
X13295686Y18190000D01*
X13300080Y18194394D01*
X13352741Y18285606D01*
X13380000Y18387339D01*
X13380000Y18492661D01*
X13352741Y18594394D01*
X13300080Y18685606D01*
X13295686Y18690000D01*
X14279999Y18690000D01*
X14279999Y19039972D01*
X14279998Y19039987D01*
X14269505Y19142698D01*
X14214358Y19309120D01*
X14214356Y19309125D01*
X14122315Y19458346D01*
X13998345Y19582316D01*
X13849124Y19674357D01*
X13849119Y19674359D01*
X13682697Y19729506D01*
X13682690Y19729507D01*
X13579986Y19740000D01*
X13230000Y19740000D01*
X13230000Y18755686D01*
X13225606Y18760080D01*
X13134394Y18812741D01*
X13032661Y18840000D01*
X12927339Y18840000D01*
X12825606Y18812741D01*
X12734394Y18760080D01*
X12730000Y18755686D01*
X12730000Y19740000D01*
X12380028Y19740000D01*
X12380012Y19739999D01*
X12277302Y19729506D01*
X12110880Y19674359D01*
X12110875Y19674357D01*
X11961654Y19582316D01*
X11837684Y19458346D01*
X11745643Y19309125D01*
X11745641Y19309120D01*
X11690494Y19142698D01*
X11690493Y19142691D01*
X11680000Y19039987D01*
X11680000Y18690000D01*
X12664314Y18690000D01*
X12659920Y18685606D01*
X12607259Y18594394D01*
X12580000Y18492661D01*
X12580000Y18387339D01*
X12607259Y18285606D01*
X12659920Y18194394D01*
X12664314Y18190000D01*
X11680001Y18190000D01*
X11680001Y17840014D01*
X11690494Y17737303D01*
X11745641Y17570881D01*
X11745643Y17570876D01*
X11837684Y17421655D01*
X11961654Y17297685D01*
X12110875Y17205644D01*
X12110882Y17205641D01*
X12193067Y17178408D01*
X12250512Y17138636D01*
X12277336Y17074120D01*
X12265021Y17005344D01*
X12226949Y16960384D01*
X12132787Y16891972D01*
X12132782Y16891968D01*
X11988028Y16747214D01*
X11867715Y16581614D01*
X11774781Y16399224D01*
X11711522Y16204535D01*
X11679500Y16002352D01*
X500500Y16002352D01*
X500500Y22116287D01*
X1174500Y22116287D01*
X1174500Y21903714D01*
X1207753Y21693761D01*
X1273444Y21491586D01*
X1369951Y21302180D01*
X1494890Y21130214D01*
X1645213Y20979891D01*
X1817179Y20854952D01*
X1817181Y20854951D01*
X1817184Y20854949D01*
X2006588Y20758443D01*
X2208757Y20692754D01*
X2418713Y20659500D01*
X2418714Y20659500D01*
X2631286Y20659500D01*
X2631287Y20659500D01*
X2841243Y20692754D01*
X3043412Y20758443D01*
X3232816Y20854949D01*
X3254789Y20870914D01*
X3404786Y20979891D01*
X3404788Y20979894D01*
X3404792Y20979896D01*
X3555104Y21130208D01*
X3555106Y21130212D01*
X3555109Y21130214D01*
X3680048Y21302180D01*
X3680047Y21302180D01*
X3680051Y21302184D01*
X3776557Y21491588D01*
X3842246Y21693757D01*
X3875500Y21903713D01*
X3875500Y22116287D01*
X3842246Y22326243D01*
X3776557Y22528412D01*
X3680051Y22717816D01*
X3680049Y22717819D01*
X3680048Y22717821D01*
X3555109Y22889787D01*
X3441181Y23003715D01*
X3407696Y23065038D01*
X3412680Y23134730D01*
X3454552Y23190663D01*
X3485529Y23207578D01*
X3617086Y23256646D01*
X3617093Y23256650D01*
X3732187Y23342810D01*
X3732190Y23342813D01*
X3818350Y23457907D01*
X3818354Y23457914D01*
X3868596Y23592621D01*
X3868598Y23592628D01*
X3874999Y23652156D01*
X3875000Y23652173D01*
X3875000Y24300000D01*
X2958012Y24300000D01*
X2990925Y24357007D01*
X3025000Y24484174D01*
X3025000Y24615826D01*
X2990925Y24742993D01*
X2958012Y24800000D01*
X3875000Y24800000D01*
X3875000Y25447828D01*
X3874999Y25447845D01*
X3868598Y25507373D01*
X3868596Y25507380D01*
X3818354Y25642087D01*
X3818350Y25642094D01*
X3732190Y25757188D01*
X3732187Y25757191D01*
X3617093Y25843351D01*
X3617086Y25843355D01*
X3482379Y25893597D01*
X3482372Y25893599D01*
X3422844Y25900000D01*
X2775000Y25900000D01*
X2775000Y24983012D01*
X2717993Y25015925D01*
X2590826Y25050000D01*
X2459174Y25050000D01*
X2332007Y25015925D01*
X2275000Y24983012D01*
X2275000Y25900000D01*
X1627155Y25900000D01*
X1567627Y25893599D01*
X1567620Y25893597D01*
X1432913Y25843355D01*
X1432906Y25843351D01*
X1317812Y25757191D01*
X1317809Y25757188D01*
X1231649Y25642094D01*
X1231645Y25642087D01*
X1181403Y25507380D01*
X1181401Y25507373D01*
X1175000Y25447845D01*
X1175000Y24800000D01*
X2091988Y24800000D01*
X2059075Y24742993D01*
X2025000Y24615826D01*
X2025000Y24484174D01*
X2059075Y24357007D01*
X2091988Y24300000D01*
X1175000Y24300000D01*
X1175000Y23652156D01*
X1181401Y23592628D01*
X1181403Y23592621D01*
X1231645Y23457914D01*
X1231649Y23457907D01*
X1317809Y23342813D01*
X1317812Y23342810D01*
X1432906Y23256650D01*
X1432913Y23256646D01*
X1564470Y23207578D01*
X1620404Y23165707D01*
X1644821Y23100242D01*
X1629969Y23031969D01*
X1608819Y23003715D01*
X1494889Y22889785D01*
X1369951Y22717821D01*
X1273444Y22528415D01*
X1207753Y22326240D01*
X1174500Y22116287D01*
X500500Y22116287D01*
X500500Y31472352D01*
X11789500Y31472352D01*
X11789500Y31267649D01*
X11821522Y31065466D01*
X11884781Y30870777D01*
X11977715Y30688387D01*
X12098028Y30522787D01*
X12242786Y30378029D01*
X12397749Y30265444D01*
X12408390Y30257713D01*
X12499840Y30211117D01*
X12501080Y30210485D01*
X12551876Y30162510D01*
X12568671Y30094689D01*
X12546134Y30028554D01*
X12501080Y29989515D01*
X12408386Y29942285D01*
X12242786Y29821972D01*
X12098028Y29677214D01*
X11977715Y29511614D01*
X11884781Y29329224D01*
X11821522Y29134535D01*
X11789500Y28932352D01*
X11789500Y28727649D01*
X11821522Y28525466D01*
X11884781Y28330777D01*
X11977715Y28148387D01*
X12098028Y27982787D01*
X12242786Y27838029D01*
X12397749Y27725444D01*
X12408390Y27717713D01*
X12499840Y27671117D01*
X12501080Y27670485D01*
X12551876Y27622510D01*
X12568671Y27554689D01*
X12546134Y27488554D01*
X12501080Y27449515D01*
X12408386Y27402285D01*
X12242786Y27281972D01*
X12098028Y27137214D01*
X11977715Y26971614D01*
X11884781Y26789224D01*
X11821522Y26594535D01*
X11789500Y26392352D01*
X11789500Y26187649D01*
X11821522Y25985466D01*
X11884781Y25790777D01*
X11948691Y25665347D01*
X11960543Y25642087D01*
X11977715Y25608387D01*
X12098028Y25442787D01*
X12242786Y25298029D01*
X12397749Y25185444D01*
X12408390Y25177713D01*
X12524607Y25118497D01*
X12590776Y25084782D01*
X12590778Y25084782D01*
X12590781Y25084780D01*
X12695137Y25050873D01*
X12785465Y25021523D01*
X12886557Y25005512D01*
X12987648Y24989500D01*
X12987649Y24989500D01*
X13192351Y24989500D01*
X13192352Y24989500D01*
X13394534Y25021523D01*
X13589219Y25084780D01*
X13771610Y25177713D01*
X13864590Y25245268D01*
X13937213Y25298029D01*
X13937215Y25298032D01*
X13937219Y25298034D01*
X14081966Y25442781D01*
X14081968Y25442785D01*
X14081971Y25442787D01*
X14134732Y25515410D01*
X14202287Y25608390D01*
X14295220Y25790781D01*
X14358477Y25985466D01*
X14390500Y26187648D01*
X14390500Y26392352D01*
X14358477Y26594534D01*
X14295220Y26789219D01*
X14295218Y26789222D01*
X14295218Y26789224D01*
X14261503Y26855393D01*
X14202287Y26971610D01*
X14194556Y26982251D01*
X14081971Y27137214D01*
X13937213Y27281972D01*
X13771614Y27402285D01*
X13765006Y27405652D01*
X13678917Y27449517D01*
X13628123Y27497489D01*
X13611328Y27565310D01*
X13633865Y27631445D01*
X13678917Y27670484D01*
X13771610Y27717713D01*
X13792770Y27733087D01*
X13937213Y27838029D01*
X13937215Y27838032D01*
X13937219Y27838034D01*
X14081966Y27982781D01*
X14081968Y27982785D01*
X14081971Y27982787D01*
X14134732Y28055410D01*
X14202287Y28148390D01*
X14295220Y28330781D01*
X14358477Y28525466D01*
X14390500Y28727648D01*
X14390500Y28932352D01*
X14358477Y29134534D01*
X14295220Y29329219D01*
X14295218Y29329222D01*
X14295218Y29329224D01*
X14261503Y29395393D01*
X14202287Y29511610D01*
X14194556Y29522251D01*
X14081971Y29677214D01*
X13937213Y29821972D01*
X13771614Y29942285D01*
X13765006Y29945652D01*
X13678917Y29989517D01*
X13628123Y30037489D01*
X13611328Y30105310D01*
X13633865Y30171445D01*
X13678917Y30210484D01*
X13771610Y30257713D01*
X13792770Y30273087D01*
X13937213Y30378029D01*
X13937215Y30378032D01*
X13937219Y30378034D01*
X14081966Y30522781D01*
X14081968Y30522785D01*
X14081971Y30522787D01*
X14134732Y30595410D01*
X14202287Y30688390D01*
X14295220Y30870781D01*
X14358477Y31065466D01*
X14390500Y31267648D01*
X14390500Y31472352D01*
X14358477Y31674534D01*
X14295220Y31869219D01*
X14295218Y31869222D01*
X14295218Y31869224D01*
X14261503Y31935393D01*
X14202287Y32051610D01*
X14194556Y32062251D01*
X14081971Y32217214D01*
X13937217Y32361968D01*
X13937212Y32361972D01*
X13843051Y32430384D01*
X13800385Y32485714D01*
X13794406Y32555327D01*
X13827012Y32617122D01*
X13876933Y32648408D01*
X13959117Y32675641D01*
X13959124Y32675644D01*
X14108345Y32767685D01*
X14232315Y32891655D01*
X14324356Y33040876D01*
X14324358Y33040881D01*
X14379505Y33207303D01*
X14379506Y33207310D01*
X14389999Y33310014D01*
X14390000Y33310027D01*
X14390000Y33660000D01*
X13405686Y33660000D01*
X13410080Y33664394D01*
X13462741Y33755606D01*
X13490000Y33857339D01*
X13490000Y33962661D01*
X13476685Y34012352D01*
X19409500Y34012352D01*
X19409500Y33807649D01*
X19441522Y33605466D01*
X19504781Y33410777D01*
X19597715Y33228387D01*
X19718028Y33062787D01*
X19862786Y32918029D01*
X20017749Y32805444D01*
X20028390Y32797713D01*
X20119840Y32751117D01*
X20121080Y32750485D01*
X20171876Y32702510D01*
X20188671Y32634689D01*
X20166134Y32568554D01*
X20121080Y32529515D01*
X20028386Y32482285D01*
X19862786Y32361972D01*
X19718028Y32217214D01*
X19597715Y32051614D01*
X19504781Y31869224D01*
X19441522Y31674535D01*
X19409500Y31472352D01*
X19409500Y31267649D01*
X19441522Y31065466D01*
X19504781Y30870777D01*
X19597715Y30688387D01*
X19718028Y30522787D01*
X19862786Y30378029D01*
X20017749Y30265444D01*
X20028390Y30257713D01*
X20119840Y30211117D01*
X20121080Y30210485D01*
X20171876Y30162510D01*
X20188671Y30094689D01*
X20166134Y30028554D01*
X20121080Y29989515D01*
X20028386Y29942285D01*
X19862786Y29821972D01*
X19718028Y29677214D01*
X19597715Y29511614D01*
X19504781Y29329224D01*
X19441522Y29134535D01*
X19409500Y28932352D01*
X19409500Y28727649D01*
X19441522Y28525466D01*
X19504781Y28330777D01*
X19597715Y28148387D01*
X19718028Y27982787D01*
X19862786Y27838029D01*
X20017749Y27725444D01*
X20028390Y27717713D01*
X20119840Y27671117D01*
X20121080Y27670485D01*
X20171876Y27622510D01*
X20188671Y27554689D01*
X20166134Y27488554D01*
X20121080Y27449515D01*
X20028386Y27402285D01*
X19862786Y27281972D01*
X19718028Y27137214D01*
X19597715Y26971614D01*
X19504781Y26789224D01*
X19441522Y26594535D01*
X19409500Y26392352D01*
X19409500Y26187649D01*
X19441522Y25985466D01*
X19504781Y25790777D01*
X19568691Y25665347D01*
X19580543Y25642087D01*
X19597715Y25608387D01*
X19718028Y25442787D01*
X19862786Y25298029D01*
X20017749Y25185444D01*
X20028390Y25177713D01*
X20144607Y25118497D01*
X20210776Y25084782D01*
X20210778Y25084782D01*
X20210781Y25084780D01*
X20315137Y25050873D01*
X20405465Y25021523D01*
X20506557Y25005512D01*
X20607648Y24989500D01*
X20607649Y24989500D01*
X20812351Y24989500D01*
X20812352Y24989500D01*
X21014534Y25021523D01*
X21209219Y25084780D01*
X21391610Y25177713D01*
X21484590Y25245268D01*
X21557213Y25298029D01*
X21557215Y25298032D01*
X21557219Y25298034D01*
X21701966Y25442781D01*
X21701968Y25442785D01*
X21701971Y25442787D01*
X21754732Y25515410D01*
X21822287Y25608390D01*
X21915220Y25790781D01*
X21978477Y25985466D01*
X22010500Y26187648D01*
X22010500Y26392352D01*
X21978477Y26594534D01*
X21915220Y26789219D01*
X21915218Y26789222D01*
X21915218Y26789224D01*
X21881503Y26855393D01*
X21822287Y26971610D01*
X21814556Y26982251D01*
X21701971Y27137214D01*
X21557213Y27281972D01*
X21391614Y27402285D01*
X21385006Y27405652D01*
X21298917Y27449517D01*
X21248123Y27497489D01*
X21231328Y27565310D01*
X21253865Y27631445D01*
X21298917Y27670484D01*
X21391610Y27717713D01*
X21412770Y27733087D01*
X21557213Y27838029D01*
X21557215Y27838032D01*
X21557219Y27838034D01*
X21701966Y27982781D01*
X21701968Y27982785D01*
X21701971Y27982787D01*
X21754732Y28055410D01*
X21822287Y28148390D01*
X21915220Y28330781D01*
X21978477Y28525466D01*
X22010500Y28727648D01*
X22010500Y28932352D01*
X21978477Y29134534D01*
X21915220Y29329219D01*
X21915218Y29329222D01*
X21915218Y29329224D01*
X21881503Y29395393D01*
X21822287Y29511610D01*
X21814556Y29522251D01*
X21701971Y29677214D01*
X21557213Y29821972D01*
X21391614Y29942285D01*
X21385006Y29945652D01*
X21298917Y29989517D01*
X21248123Y30037489D01*
X21231328Y30105310D01*
X21253865Y30171445D01*
X21298917Y30210484D01*
X21391610Y30257713D01*
X21412770Y30273087D01*
X21557213Y30378029D01*
X21557215Y30378032D01*
X21557219Y30378034D01*
X21701966Y30522781D01*
X21701968Y30522785D01*
X21701971Y30522787D01*
X21754732Y30595410D01*
X21822287Y30688390D01*
X21915220Y30870781D01*
X21978477Y31065466D01*
X22010500Y31267648D01*
X22010500Y31472352D01*
X21978477Y31674534D01*
X21915220Y31869219D01*
X21915218Y31869222D01*
X21915218Y31869224D01*
X21881503Y31935393D01*
X21822287Y32051610D01*
X21814556Y32062251D01*
X21701971Y32217214D01*
X21557213Y32361972D01*
X21391614Y32482285D01*
X21384884Y32485714D01*
X21298917Y32529517D01*
X21248123Y32577489D01*
X21231328Y32645310D01*
X21253865Y32711445D01*
X21298917Y32750484D01*
X21391610Y32797713D01*
X21412770Y32813087D01*
X21557213Y32918029D01*
X21557215Y32918032D01*
X21557219Y32918034D01*
X21701966Y33062781D01*
X21701968Y33062785D01*
X21701971Y33062787D01*
X21754732Y33135410D01*
X21822287Y33228390D01*
X21915220Y33410781D01*
X21978477Y33605466D01*
X22010500Y33807648D01*
X22010500Y34012352D01*
X22002257Y34064394D01*
X21978477Y34214535D01*
X21915218Y34409224D01*
X21881503Y34475393D01*
X21822287Y34591610D01*
X21806966Y34612698D01*
X21701971Y34757214D01*
X21557213Y34901972D01*
X21391613Y35022285D01*
X21391612Y35022286D01*
X21391610Y35022287D01*
X21332675Y35052316D01*
X21209223Y35115219D01*
X21014534Y35178478D01*
X20839995Y35206122D01*
X20812352Y35210500D01*
X20607648Y35210500D01*
X20583329Y35206649D01*
X20405465Y35178478D01*
X20210776Y35115219D01*
X20028386Y35022285D01*
X19862786Y34901972D01*
X19718028Y34757214D01*
X19597715Y34591614D01*
X19504781Y34409224D01*
X19441522Y34214535D01*
X19409500Y34012352D01*
X13476685Y34012352D01*
X13462741Y34064394D01*
X13410080Y34155606D01*
X13405686Y34160000D01*
X14389999Y34160000D01*
X14389999Y34509972D01*
X14389998Y34509987D01*
X14379505Y34612698D01*
X14324358Y34779120D01*
X14324356Y34779125D01*
X14232315Y34928346D01*
X14108345Y35052316D01*
X13959124Y35144357D01*
X13959119Y35144359D01*
X13792697Y35199506D01*
X13792690Y35199507D01*
X13689986Y35210000D01*
X13340000Y35210000D01*
X13340000Y34225686D01*
X13335606Y34230080D01*
X13244394Y34282741D01*
X13142661Y34310000D01*
X13037339Y34310000D01*
X12935606Y34282741D01*
X12844394Y34230080D01*
X12840000Y34225686D01*
X12840000Y35210000D01*
X12490028Y35210000D01*
X12490012Y35209999D01*
X12387302Y35199506D01*
X12220880Y35144359D01*
X12220875Y35144357D01*
X12071654Y35052316D01*
X11947684Y34928346D01*
X11855643Y34779125D01*
X11855641Y34779120D01*
X11800494Y34612698D01*
X11800493Y34612691D01*
X11790000Y34509987D01*
X11790000Y34160000D01*
X12774314Y34160000D01*
X12769920Y34155606D01*
X12717259Y34064394D01*
X12690000Y33962661D01*
X12690000Y33857339D01*
X12717259Y33755606D01*
X12769920Y33664394D01*
X12774314Y33660000D01*
X11790001Y33660000D01*
X11790001Y33310014D01*
X11800494Y33207303D01*
X11855641Y33040881D01*
X11855643Y33040876D01*
X11947684Y32891655D01*
X12071654Y32767685D01*
X12220875Y32675644D01*
X12220882Y32675641D01*
X12303067Y32648408D01*
X12360512Y32608636D01*
X12387336Y32544120D01*
X12375021Y32475344D01*
X12336949Y32430384D01*
X12242787Y32361972D01*
X12242782Y32361968D01*
X12098028Y32217214D01*
X11977715Y32051614D01*
X11884781Y31869224D01*
X11821522Y31674535D01*
X11789500Y31472352D01*
X500500Y31472352D01*
X500500Y40775500D01*
X520185Y40842539D01*
X572989Y40888294D01*
X624500Y40899500D01*
X33775500Y40899500D01*
X33842539Y40879815D01*
G37*
%TD.AperFunction*%
%TD*%
M02*
